<svg xmlns="http://www.w3.org/2000/svg" viewBox="0 0 500 277.14"><defs><style>.cls-1{fill:#ebebeb;}.cls-2{fill:#e6e6e6;}.cls-3{fill:#f5f5f5;}.cls-10,.cls-12,.cls-15,.cls-4{fill:#fff;}.cls-12,.cls-5{opacity:0.4;}.cls-6{fill:#f0f0f0;}.cls-7{fill:#263238;}.cls-18,.cls-8{opacity:0.6;}.cls-11,.cls-18,.cls-9{fill:#407bff;}.cls-10{opacity:0.7;}.cls-11{opacity:0.1;}.cls-13{fill:#b65b52;}.cls-14{fill:#b55b52;}.cls-15,.cls-21{opacity:0.5;}.cls-16{opacity:0.2;}.cls-17,.cls-20{fill:#fafafa;}.cls-19{fill:#a02724;}.cls-20{opacity:0.3;}</style></defs><title>ArtboardSupport</title><g id="Chat"><path class="cls-1" d="M237,287.85H43.91a5.71,5.71,0,0,1-5.7-5.71V10.71A5.71,5.71,0,0,1,43.91,5H237a5.71,5.71,0,0,1,5.71,5.71V282.14A5.71,5.71,0,0,1,237,287.85ZM43.91,5.25a5.46,5.46,0,0,0-5.45,5.46V282.14a5.46,5.46,0,0,0,5.45,5.46H237a5.47,5.47,0,0,0,5.46-5.46V10.71A5.47,5.47,0,0,0,237,5.25Z"/><path class="cls-1" d="M453.31,287.85H260.21a5.72,5.72,0,0,1-5.71-5.71V10.71A5.72,5.72,0,0,1,260.21,5h193.1A5.71,5.71,0,0,1,459,10.71V282.14A5.71,5.71,0,0,1,453.31,287.85ZM260.21,5.25a5.47,5.47,0,0,0-5.46,5.46V282.14a5.47,5.47,0,0,0,5.46,5.46h193.1a5.47,5.47,0,0,0,5.46-5.46V10.71a5.47,5.47,0,0,0-5.46-5.46Z"/><rect class="cls-2" x="179.13" y="38.66" width="231.69" height="154.07" transform="translate(589.96 231.39) rotate(180)"/><rect class="cls-3" x="175.55" y="38.66" width="231.69" height="154.07" transform="translate(582.79 231.39) rotate(180)"/><rect class="cls-4" x="221.59" y="6.28" width="139.61" height="218.82" transform="translate(407.09 -175.7) rotate(90)"/><rect class="cls-2" x="113.54" y="114.34" width="139.61" height="2.71" transform="translate(299.03 -67.64) rotate(90)"/><rect class="cls-3" x="178.21" y="142.11" width="226.37" height="9.71" transform="translate(582.79 293.92) rotate(180)"/><g class="cls-5"><rect class="cls-2" x="168.36" y="31.06" width="21.87" height="130.34"/><rect class="cls-3" x="190.24" y="31.06" width="10.84" height="119.87" transform="translate(391.32 181.98) rotate(180)"/><rect class="cls-2" x="201.08" y="31.06" width="21.87" height="130.34"/><rect class="cls-3" x="222.95" y="31.06" width="10.84" height="119.87" transform="translate(456.75 181.98) rotate(180)"/><rect class="cls-2" x="233.8" y="31.06" width="21.87" height="130.34"/><rect class="cls-3" x="255.67" y="31.06" width="10.84" height="119.87" transform="translate(522.19 181.98) rotate(180)"/><rect class="cls-2" x="266.52" y="31.06" width="21.87" height="130.34"/><rect class="cls-3" x="288.39" y="31.06" width="10.84" height="119.87" transform="translate(587.63 181.98) rotate(180)"/><rect class="cls-2" x="299.24" y="31.06" width="21.87" height="130.34"/><rect class="cls-3" x="321.11" y="31.06" width="10.84" height="119.87" transform="translate(653.06 181.98) rotate(180)"/><rect class="cls-2" x="331.95" y="31.06" width="21.87" height="130.34"/><rect class="cls-3" x="353.83" y="31.06" width="10.84" height="119.87" transform="translate(718.5 181.98) rotate(180)"/><rect class="cls-2" x="364.67" y="31.06" width="21.87" height="130.34"/><rect class="cls-3" x="386.55" y="31.06" width="10.84" height="119.87" transform="translate(783.94 181.98) rotate(180)"/><rect class="cls-2" x="397.39" y="31.06" width="21.87" height="130.34"/></g><rect class="cls-1" x="82.79" y="227.05" width="51.29" height="105.4" transform="translate(216.87 559.49) rotate(180)"/><rect class="cls-1" x="375.43" y="227.05" width="51.29" height="105.4" transform="translate(802.15 559.49) rotate(180)"/><rect class="cls-3" x="82.79" y="227.05" width="301.14" height="92.23" transform="translate(466.72 546.32) rotate(180)"/><path class="cls-2" d="M373.92,293.26H284.65a.83.83,0,0,1-.82-.83V234.07a.82.82,0,0,1,.82-.82h16.48a.79.79,0,0,1,.49.17,29.14,29.14,0,0,0,8.05,4.12,33.67,33.67,0,0,0,10.78,1.72h17.66A31.75,31.75,0,0,0,357,233.42a.78.78,0,0,1,.48-.17h16.49a.82.82,0,0,1,.82.82v58.36A.83.83,0,0,1,373.92,293.26Zm-88.45-1.65H373.1V234.9H357.7a33.5,33.5,0,0,1-19.59,6H320.45a35.47,35.47,0,0,1-11.3-1.81,30.59,30.59,0,0,1-8.28-4.2h-15.4Z"/><path class="cls-2" d="M278,293.26H188.72a.83.83,0,0,1-.82-.83V234.07a.82.82,0,0,1,.82-.82h15.59a.79.79,0,0,1,.49.17,28.61,28.61,0,0,0,8,4.12,33.67,33.67,0,0,0,10.78,1.72h17.66a31.66,31.66,0,0,0,18.81-5.84.83.83,0,0,1,.49-.17H278a.82.82,0,0,1,.82.82v58.36A.82.82,0,0,1,278,293.26Zm-88.45-1.65h87.63V234.9H260.86a33.46,33.46,0,0,1-19.57,6H223.63a35.47,35.47,0,0,1-11.3-1.81,30.51,30.51,0,0,1-8.29-4.2h-14.5Z"/><path class="cls-2" d="M182.07,293.26H92.8a.82.82,0,0,1-.82-.83V234.07a.82.82,0,0,1,.82-.82h15.59a.84.84,0,0,1,.48.16,28.89,28.89,0,0,0,8,4.13,33.68,33.68,0,0,0,10.79,1.72h17.66a31.74,31.74,0,0,0,18.83-5.84.79.79,0,0,1,.49-.17h17.38a.82.82,0,0,1,.82.82v58.36A.83.83,0,0,1,182.07,293.26Zm-88.45-1.65h87.63V234.9H165a33.49,33.49,0,0,1-19.58,6H127.71a35.38,35.38,0,0,1-11.3-1.81,30.5,30.5,0,0,1-8.29-4.2H93.62Z"/><path class="cls-2" d="M143.94,209.39h-8.09c.06-5.6,0-19.82-.57-52.39-1-59-2.87-62.65-2.87-62.65L142,123.49A79,79,0,0,1,146,144.7C147,167.41,143,185.55,143.94,209.39Z"/><path class="cls-2" d="M150.09,114.71c10.79-16.33,32.33-24.85,54.35-32.87,8.64-3.15-15.62,35.92-33.26,53.63-13.7,13.76-27,13.46-30.93,27.06C139.49,146.74,140.79,128.78,150.09,114.71Z"/><path class="cls-2" d="M137.73,104.22c-8.46-19.09-29.83-43.86-53.85-61.31-9.43-6.85,13.84,52,30.25,76.05,12.78,18.76,24.7,30.18,26.56,43.57C148.75,145.79,146.18,123.32,137.73,104.22Z"/><path class="cls-6" d="M138.53,227.05h0a17.91,17.91,0,0,0,17.88-16.89L158,194H119.06l1.58,16.19A17.92,17.92,0,0,0,138.53,227.05Z"/><polygon class="cls-6" points="116.54 194.06 160.52 194.06 161.78 188.3 115.28 188.3 116.54 194.06"/><polygon class="cls-6" points="118.71 203.92 158.35 203.92 159.49 198.17 117.57 198.17 118.71 203.92"/><path class="cls-7" d="M362.48,261.46H172.6a4.27,4.27,0,0,1-4.3-4.59l7.82-124.1a5,5,0,0,1,4.89-4.59H370.88a4.27,4.27,0,0,1,4.3,4.59l-7.82,124.1A5,5,0,0,1,362.48,261.46Z"/><path class="cls-8" d="M362.48,261.46H172.6a4.27,4.27,0,0,1-4.3-4.59l7.82-124.1a5,5,0,0,1,4.89-4.59H370.88a4.27,4.27,0,0,1,4.3,4.59l-7.82,124.1A5,5,0,0,1,362.48,261.46Z"/><path class="cls-7" d="M361.06,261.46H171.19a4.27,4.27,0,0,1-4.31-4.59l7.82-124.1a5,5,0,0,1,4.89-4.59H369.46a4.27,4.27,0,0,1,4.3,4.59l-7.82,124.1A5,5,0,0,1,361.06,261.46Z"/><path class="cls-7" d="M360.82,263H134.89a5.51,5.51,0,0,0-5,3.09,1.58,1.58,0,0,0,1.45,2.26H364.32a1.58,1.58,0,0,0,1.45-2.26A5.49,5.49,0,0,0,360.82,263Z"/><path class="cls-8" d="M360.82,263H328.69a5.48,5.48,0,0,0-4.95,3.09,1.58,1.58,0,0,0,1.44,2.26h39.14a1.58,1.58,0,0,0,1.45-2.26A5.49,5.49,0,0,0,360.82,263Z"/><path class="cls-9" d="M340.9,266.94h-8.3a.72.72,0,0,1-.72-.73h0a.73.73,0,0,1,.72-.73h8.3a.73.73,0,0,1,.73.73h0A.73.73,0,0,1,340.9,266.94Z"/><path class="cls-10" d="M234.17,266.94h-8.29a.73.73,0,0,1-.73-.73h0a.73.73,0,0,1,.73-.73h8.29a.73.73,0,0,1,.73.73h0A.73.73,0,0,1,234.17,266.94Z"/><rect class="cls-9" x="343.46" y="265.48" width="6.63" height="1.46" rx="0.6"/><path class="cls-4" d="M171.16,252.38l7.26-115.12a1.94,1.94,0,0,1,1.9-1.79H367.81a1.66,1.66,0,0,1,1.67,1.79l-7.25,115.12a1.94,1.94,0,0,1-1.91,1.79H172.84A1.67,1.67,0,0,1,171.16,252.38Z"/><path class="cls-11" d="M277.82,131.93l-62.45,118.7H169.3a1.66,1.66,0,0,1-1.68-1.79l7.26-115.12a1.94,1.94,0,0,1,1.9-1.79Z"/><polygon class="cls-11" points="332.51 131.93 270.06 250.63 255.5 250.63 317.95 131.93 332.51 131.93"/><path class="cls-11" d="M365.94,133.72l-7.26,115.12a1.93,1.93,0,0,1-1.9,1.79h-71l62.45-118.7h16A1.67,1.67,0,0,1,365.94,133.72Z"/><path class="cls-12" d="M275.63,132a1.45,1.45,0,0,1-1.43,1.34,1.24,1.24,0,0,1-1.26-1.34,1.44,1.44,0,0,1,1.43-1.35A1.25,1.25,0,0,1,275.63,132Z"/><path class="cls-7" d="M244.65,104.44c-5.47,6.26-8.63,25.45-4.58,34.89s-42.94,18.89-4.17,34.22,69.78-2.44,58.56-18.33,1.21-42.35-11.78-49C270.94,100.15,255.61,91.89,244.65,104.44Z"/><path class="cls-13" d="M233.06,181.71c-2.05,7-4.23,14-6.49,21s-4.61,13.91-7.1,20.87l-.95,2.61-.48,1.32-.15.39-.24.59c-.15.37-.38.79-.58,1.18a11,11,0,0,1-4.21,4.26,11.52,11.52,0,0,1-5.24,1.38,19.34,19.34,0,0,1-7.49-1.47,43.39,43.39,0,0,1-5.63-2.78,89.57,89.57,0,0,1-17.88-14.46l4.31-5.08c1.45.92,3,1.91,4.5,2.85s3.07,1.82,4.59,2.72a93.27,93.27,0,0,0,9.21,4.71,31.24,31.24,0,0,0,4.44,1.57,8.09,8.09,0,0,0,3.26.38c.28,0,.23-.16,0-.07a2.06,2.06,0,0,0-.49.32s0,0,0-.06a.13.13,0,0,0,0-.06l.08-.25.38-1.29.77-2.6,6.11-21q3.12-10.51,6.42-21Z"/><path class="cls-14" d="M180.62,211.35,169,207l4.61,12.27s8.2,1.19,11.38-3.13l-2.59-3.46A4,4,0,0,0,180.62,211.35Z"/><polygon class="cls-14" points="158.75 210.62 163.17 220.69 173.66 219.3 169.04 207.03 158.75 210.62"/><path class="cls-9" d="M224.58,163.6c-5.32,1.35-9,23.22-9,23.22l14.65,10s14-22.06,9.95-27.91C235.88,162.79,232.33,161.62,224.58,163.6Z"/><path class="cls-15" d="M224.58,163.6c-5.32,1.35-9,23.22-9,23.22l14.65,10s14-22.06,9.95-27.91C235.88,162.79,232.33,161.62,224.58,163.6Z"/><path class="cls-16" d="M224.1,171.55l11.37,2.63,1.09,11.12a127.72,127.72,0,0,1-6.37,11.48l-8.89-6C221.69,185.63,222.65,175,224.1,171.55Z"/><path class="cls-9" d="M224.58,163.6s-6.15,2.16,6.16,77.82H283.1c-.88-21.32-.9-34.46,9.28-78.2a154.79,154.79,0,0,0-22.23-2.92c-8.81-.43-16-.71-23.78,0C236.16,161.23,224.58,163.6,224.58,163.6Z"/><path class="cls-15" d="M224.58,163.6s-6.15,2.16,6.16,77.82H283.1c-.88-21.32-.9-34.46,9.28-78.2a154.79,154.79,0,0,0-22.23-2.92c-8.81-.43-16-.71-23.78,0C236.16,161.23,224.58,163.6,224.58,163.6Z"/><path class="cls-16" d="M280.06,183.53l6.76,5.75c-1.44,7.65-2.41,14-3,19.69C282.53,203.29,279.31,187.88,280.06,183.53Z"/><path class="cls-14" d="M267.79,133.52c-1.5,7.65-3,21.67,2.36,26.78,0,0-5,11.46-18.25,11.46s-5.53-11.46-5.53-11.46c8.53-2,8.31-8.37,6.83-14.32Z"/><path class="cls-17" d="M268.45,157.43c-1.26,2.56-5.32,8.39-16.66,10.46a1.21,1.21,0,0,1-.91-.17c-2.12-1.49-3.44-4.61-2.51-8.24a1.24,1.24,0,0,0-1.66-1.48,15.82,15.82,0,0,0-2.5,1.32,1.21,1.21,0,0,0-.41.46c-.83,1.56-4.19,9.2,5.95,13.9a1.16,1.16,0,0,0,.51.12c6,.13,16.49-1.05,23.12-13a1.26,1.26,0,0,0-.11-1.38,12.68,12.68,0,0,0-3.07-2.47A1.23,1.23,0,0,0,268.45,157.43Z"/><path class="cls-17" d="M271.23,188.92l-13.5-.4a1,1,0,0,1-1-1.11l.13-1.66A1.16,1.16,0,0,1,258,184.7l13.5.39a1,1,0,0,1,1,1.11l-.13,1.67A1.16,1.16,0,0,1,271.23,188.92Z"/><path class="cls-16" d="M261.84,138.61,253.2,146a24.1,24.1,0,0,1,.74,4.22c3.25-.47,7.73-4,8.08-7.46A11.44,11.44,0,0,0,261.84,138.61Z"/><path class="cls-14" d="M277.87,119.07c-2.41,12.56-3.16,17.93-10.4,23.61-10.89,8.54-25.8,2.82-27.18-10.21-1.25-11.73,2.9-30.31,16-33.75A17.45,17.45,0,0,1,277.87,119.07Z"/><path class="cls-7" d="M270.72,109.75c-1.56,7.87-1.93,18.33,5.32,18.33s12.86-12.27,6.64-21.89S271.63,105.11,270.72,109.75Z"/><path class="cls-7" d="M283.18,110.72c0,8.55-10.78,4.32-15.55.63s-5-3.28-13.84-3.3-10.61-.61-13.22-4.83-2.37-7,3.51-6.11S245,92,249.4,88.66,259,86.17,265,93.77,283.18,95.88,283.18,110.72Z"/><ellipse class="cls-4" cx="275.47" cy="128.89" rx="7.3" ry="4.73" transform="translate(74.28 356.98) rotate(-73.66)"/><path class="cls-4" d="M260,139.9a17.27,17.27,0,0,1-6.75-1.38.37.37,0,0,1-.2-.49.39.39,0,0,1,.5-.2,16.35,16.35,0,0,0,12.73.07,15.94,15.94,0,0,0,8.76-8.75c3-8.59,6.06-19.32,2.52-26a10.35,10.35,0,0,0-6.9-5.13.37.37,0,1,1,.19-.72,11,11,0,0,1,7.37,5.5c3.68,6.91.61,17.84-2.48,26.59a16.64,16.64,0,0,1-9.17,9.17A17.12,17.12,0,0,1,260,139.9Z"/><path class="cls-18" d="M279.65,130.26c-.89,3-2.93,5.12-4.56,4.64s-2.23-3.33-1.34-6.37,2.93-5.12,4.56-4.64S280.54,127.22,279.65,130.26Z"/><rect class="cls-4" x="248.81" y="136.45" width="6.53" height="2.77" rx="1.27" transform="translate(30.67 -45.25) rotate(10.92)"/><path class="cls-19" d="M249.17,120.09s-2.32,4.22-4.52,6.11c1.19,1.45,3.59,1.17,3.59,1.17Z"/><path class="cls-7" d="M251.38,132.74l.09,0a8.85,8.85,0,0,0,6.3-1.92.19.19,0,1,0-.25-.29,8.67,8.67,0,0,1-6,1.83.19.19,0,0,0-.22.17A.18.18,0,0,0,251.38,132.74Z"/><path class="cls-7" d="M262.82,115.15a.41.41,0,0,0,.37,0,.4.4,0,0,0,.12-.54,5.84,5.84,0,0,0-4.55-2.84.4.4,0,0,0-.4.38.39.39,0,0,0,.38.4,5,5,0,0,1,3.91,2.47A.35.35,0,0,0,262.82,115.15Z"/><path class="cls-7" d="M257.09,120.27c-.17,1-.86,1.77-1.54,1.66s-1.07-1.05-.9-2.08.87-1.77,1.54-1.66S257.27,119.24,257.09,120.27Z"/><path class="cls-7" d="M245.43,118.28c-.17,1-.86,1.78-1.54,1.66s-1.07-1-.9-2.07.87-1.78,1.54-1.66S245.61,117.25,245.43,118.28Z"/><path class="cls-7" d="M244.82,116.31l-2.36-1.13S243.4,117.33,244.82,116.31Z"/><path class="cls-7" d="M256.48,118.3l-2.36-1.14S255.06,119.32,256.48,118.3Z"/><path class="cls-7" d="M241.47,111.32a.39.39,0,0,0,.4,0,5,5,0,0,1,4.52-1,.39.39,0,1,0,.26-.73,5.8,5.8,0,0,0-5.25,1.08.37.37,0,0,0-.07.54A.53.53,0,0,0,241.47,111.32Z"/><path class="cls-9" d="M228.75,254.17s-.14-7.16,2-12.75H283.1s4.71,7.6,5.93,12.75Z"/><path class="cls-9" d="M283.89,238.34l.41,4.69c.19.36-.24.73-.85.73h-53c-.47,0-.86-.23-.89-.52l-.48-4.69c0-.33.38-.6.9-.6h53A1,1,0,0,1,283.89,238.34Z"/><path class="cls-20" d="M283.89,238.34l.41,4.69c.19.36-.24.73-.85.73h-53c-.47,0-.86-.23-.89-.52l-.48-4.69c0-.33.38-.6.9-.6h53A1,1,0,0,1,283.89,238.34Z"/><path class="cls-9" d="M276.76,244.27h1.42c.29,0,.5-.14.48-.32l-.66-6.09c0-.18-.27-.33-.55-.33H276c-.29,0-.5.15-.48.33l.66,6.09C276.23,244.13,276.48,244.27,276.76,244.27Z"/><path class="cls-9" d="M234.47,244.27h1.42c.28,0,.5-.14.48-.32l-.67-6.09c0-.18-.26-.33-.55-.33h-1.42c-.28,0-.5.15-.48.33l.67,6.09C233.94,244.13,234.19,244.27,234.47,244.27Z"/><path class="cls-9" d="M255.62,244.27H257c.28,0,.5-.14.48-.32l-.67-6.09c0-.18-.27-.33-.55-.33h-1.42c-.28,0-.5.15-.48.33l.67,6.09C255.09,244.13,255.33,244.27,255.62,244.27Z"/><path class="cls-13" d="M296.86,178c2.3,7.47,4.52,15,6.63,22.51l3.19,11.27,1.59,5.6.4,1.38.2.69.05.16v0s0,0,0,0l-.16-.25a4,4,0,0,0-.92-.94,5,5,0,0,0-2.68-.95,4.37,4.37,0,0,0-2.12.42c-.72.39-.65.48-.59.41a3.32,3.32,0,0,0,.46-.49,17.28,17.28,0,0,0,1.3-1.86c.88-1.43,1.75-3.05,2.57-4.71,1.7-3.33,3.23-6.85,4.78-10.38s3-7.13,4.5-10.73,2.93-7.24,4.41-10.83l6.39,1.91c-1.66,7.8-3.6,15.45-6,23.09-1.18,3.83-2.49,7.62-4,11.46-.78,1.92-1.61,3.84-2.64,5.83a29.66,29.66,0,0,1-1.84,3.12,15.57,15.57,0,0,1-1.4,1.78,9.46,9.46,0,0,1-2.9,2.21,7.53,7.53,0,0,1-3.54.74,7.29,7.29,0,0,1-4-1.47,8.26,8.26,0,0,1-1.89-2,10.82,10.82,0,0,1-.85-1.54c-.09-.22-.19-.45-.26-.65l-.19-.49-.26-.71-.52-1.41c-.68-1.88-1.37-3.74-2-5.61-1.28-3.75-2.56-7.47-3.76-11.22q-3.68-11.24-6.86-22.59Z"/><path class="cls-9" d="M292.38,163.22c5.25,1.6,13.28,22.19,13.28,22.19L285.31,200s-9.15-17.6-6.95-24.38C280.66,168.51,286.4,161.4,292.38,163.22Z"/><path class="cls-15" d="M292.38,163.22c5.25,1.6,13.28,22.19,13.28,22.19L285.31,200s-9.15-17.6-6.95-24.38C280.66,168.51,286.4,161.4,292.38,163.22Z"/><path class="cls-14" d="M320.7,182.1l-2.79-12.3,11.6,6.12s.14,8.27-4.54,10.89Z"/><polygon class="cls-14" points="322.77 160.04 330.17 165.28 329.51 175.92 317.91 169.8 322.77 160.04"/><path class="cls-9" d="M115,98.13h81a11.18,11.18,0,0,1,11.26,12L205,146.8a13,13,0,0,1-12.74,12h-9.38l3.83,12.59L168.42,158.8H111.29a11.18,11.18,0,0,1-11.26-12l2.24-36.67A13,13,0,0,1,115,98.13Z"/><path class="cls-4" d="M188.58,117.34h-68.5a2.1,2.1,0,0,1-2.12-2.26h0a2.44,2.44,0,0,1,2.39-2.26h68.51a2.11,2.11,0,0,1,2.12,2.26h0A2.44,2.44,0,0,1,188.58,117.34Z"/><path class="cls-4" d="M148,130.73H119.26a2.11,2.11,0,0,1-2.12-2.26h0a2.43,2.43,0,0,1,2.4-2.26h28.77a2.11,2.11,0,0,1,2.13,2.26h0A2.45,2.45,0,0,1,148,130.73Z"/><path class="cls-4" d="M172.63,144.11H118.44a2.1,2.1,0,0,1-2.12-2.26h0a2.44,2.44,0,0,1,2.4-2.26h54.19a2.11,2.11,0,0,1,2.12,2.26h0A2.44,2.44,0,0,1,172.63,144.11Z"/><path class="cls-4" d="M169.11,130.73H157.78a2.11,2.11,0,0,1-2.12-2.26h0a2.44,2.44,0,0,1,2.4-2.26h11.32a2.1,2.1,0,0,1,2.12,2.26h0A2.44,2.44,0,0,1,169.11,130.73Z"/><path class="cls-9" d="M227.79,32.23H183.63a10.1,10.1,0,0,0-9.91,9.34L172,70.1a8.71,8.71,0,0,0,8.77,9.34H188l-4.18,9.79,15.46-9.79H224.9a10.09,10.09,0,0,0,9.91-9.34l1.75-28.53A8.71,8.71,0,0,0,227.79,32.23Z"/><g class="cls-21"><path class="cls-17" d="M227.79,32.23H183.63a10.1,10.1,0,0,0-9.91,9.34L172,70.1a8.71,8.71,0,0,0,8.77,9.34H188l-4.18,9.79,15.46-9.79H224.9a10.09,10.09,0,0,0,9.91-9.34l1.75-28.53A8.71,8.71,0,0,0,227.79,32.23Z"/></g><path class="cls-4" d="M206.5,60.51a2.89,2.89,0,0,1-2.8,2.21h-2.61c0-.74.06-1.19.07-1.35a9.34,9.34,0,0,1,1.08-4.13,13.82,13.82,0,0,1,3.54-3.65,27.55,27.55,0,0,0,3.14-2.65,3.76,3.76,0,0,0,.88-2.18,3.48,3.48,0,0,0-1.15-2.85,4.89,4.89,0,0,0-3.5-1.18,5.73,5.73,0,0,0-3.7,1.23,6,6,0,0,0-1.5,1.87,3,3,0,0,1-2.9,1.63h0a2.55,2.55,0,0,1-1.84-3.88,10.13,10.13,0,0,1,2.29-2.65,11.51,11.51,0,0,1,7.67-2.53c3.27,0,5.81.85,7.64,2.56a7.3,7.3,0,0,1,2.53,6,7,7,0,0,1-1.28,3.56,25.73,25.73,0,0,1-4.83,4.57,9.51,9.51,0,0,0-2.38,2.41A3.89,3.89,0,0,0,206.5,60.51Zm-5.71,7.18,0-.32a2.89,2.89,0,0,1,2.85-2.69H204a2.51,2.51,0,0,1,2.53,2.69l0,.32a2.89,2.89,0,0,1-2.85,2.68h-.32A2.5,2.5,0,0,1,200.79,67.69Z"/></g></svg>