<svg xmlns="http://www.w3.org/2000/svg" xmlns:xlink="http://www.w3.org/1999/xlink" viewBox="0 0 504 288"><defs><style>.cls-1{isolation:isolate;}.cls-15,.cls-2{opacity:0.06;}.cls-3{fill:url(#linear-gradient);}.cls-4{fill:#636363;}.cls-15,.cls-4,.cls-6{mix-blend-mode:overlay;}.cls-5{fill:url(#linear-gradient-2);}.cls-7{fill:#fff;}.cls-8{fill:#b3b3b3;}.cls-11,.cls-13,.cls-9{mix-blend-mode:color-burn;}.cls-9{fill:url(#radial-gradient);}.cls-10{fill:url(#linear-gradient-3);}.cls-11{fill:url(#radial-gradient-2);}.cls-12{fill:url(#linear-gradient-4);}.cls-13{fill:url(#radial-gradient-3);}.cls-14{fill:url(#linear-gradient-5);}</style><linearGradient id="linear-gradient" x1="3070.53" y1="-77.3" x2="3157.83" y2="154.01" gradientTransform="matrix(-1, 0, 0, 1, 3222.41, 0)" gradientUnits="userSpaceOnUse"><stop offset="0" stop-color="#009fff"/><stop offset="1" stop-color="#8316bd"/></linearGradient><linearGradient id="linear-gradient-2" x1="2597.02" y1="182.14" x2="3010.67" y2="182.14" gradientTransform="matrix(-1, 0.07, 0.07, 1, 3216.36, -101.12)" xlink:href="#linear-gradient"/><radialGradient id="radial-gradient" cx="262.35" cy="250.74" r="36.28" gradientTransform="translate(446.11 -62.2) rotate(76.72)" gradientUnits="userSpaceOnUse"><stop offset="0.2" stop-color="#b3b3b3"/><stop offset="0.71" stop-color="#e7e7e7"/><stop offset="1" stop-color="#fff"/></radialGradient><linearGradient id="linear-gradient-3" x1="262.49" y1="260.79" x2="262.49" y2="216.55" gradientTransform="translate(436.03 -70.39) rotate(76.72)" gradientUnits="userSpaceOnUse"><stop offset="0" stop-color="#8316bd"/><stop offset="1" stop-color="#009fff"/></linearGradient><radialGradient id="radial-gradient-2" cx="152.6" cy="121.01" r="11.06" gradientTransform="translate(235.31 -55.31) rotate(76.72)" xlink:href="#radial-gradient"/><linearGradient id="linear-gradient-4" x1="152.65" y1="124.07" x2="152.65" y2="110.59" gradientTransform="translate(232.24 -57.81) rotate(76.72)" xlink:href="#linear-gradient-3"/><radialGradient id="radial-gradient-3" cx="329.07" cy="65.48" r="22.96" gradientTransform="matrix(1, 0, 0, 1, 0, 0)" xlink:href="#radial-gradient"/><linearGradient id="linear-gradient-5" x1="329.16" y1="71.84" x2="329.16" y2="43.85" gradientTransform="translate(138.03 -215.51) rotate(45)" xlink:href="#linear-gradient-3"/></defs><title>loginbg</title><g class="cls-1"><g id="Layer_1" data-name="Layer 1"><g class="cls-2"><path class="cls-3" d="M-26.83,14.14c5.26-3.63,10.62-7.12,16-10.64C26.05-20.75,10.35-54.07,34.55-63.37c16.05-6.16,39.86,13.1,44.31-6.18,9.87-42.8,46.64-36.31,66.39-14.28,10.08,11.23,11.91,20.3,21,38.28,13.94,27.52,43.52,4.49,77.6,8.37,32.3,3.67,45.69,30.75,33.88,53.2-18.44,35.06-63.1,22.42-77.59,55.9-25.9,59.85-43.8,36.62-85.85,36.78-36.52.15-48.6,26.82-76.71,39.12-22.24,11.28-43.3,11.25-64.29.42C-80.5,120.48-75.72,47.93-26.83,14.14Z"/><path class="cls-4" d="M168.82,14.72c-7.38,4.29-14.89,8.38-22.37,12.5C94.74,55.68,112.17,101.7,79,111.56c-22,6.54-51.73-21.61-59.67,3.6-17.62,56-65.94,43.51-89.94,12.1-12.25-16-13.75-28.3-24-53.2C-110.35,36-152.17,63.54-197.16,54.82c-42.66-8.27-57.66-45.76-39.59-74.43C-208.51-64.39-150.34-42.88-127.54-86c40.76-77,62.18-44.21,118.21-40C39.34-122.39,58.23-156.66,97-170.1c30.8-12.71,58.85-10.47,85.69,6.15C251.43-121.34,237.48-25.19,168.82,14.72Z"/><path class="cls-5" d="M303.91,226.83c7.13-1.57,14.31-3,21.47-4.38,49.52-9.82,46.81-46.26,76.5-46.55,19.68-.19,36.95,26,49.79,9.57,28.5-36.43,64.94-17.67,76.72,9.65,6,13.94,4.14,23,6.28,42.91,3.28,30.43,44.47,19.22,79.13,34.61,32.87,14.58,35.74,44.42,13.73,61.23-34.39,26.27-76.64-.95-106.15,25.21-52.75,46.76-62,18.94-106.9,4.56-39-12.49-63,8.16-98.15,9.89-28.43,2.81-50.84-4.5-68.65-21.84C202,307.25,237.64,241.38,303.91,226.83Z"/><path class="cls-4" d="M616.13,371.88c-7.39,4.29-14.89,8.38-22.37,12.5-51.72,28.47-34.29,74.49-67.5,84.35-22,6.53-51.74-21.62-59.67,3.6-17.62,56-65.94,43.51-89.95,12.1-12.24-16-13.74-28.3-24-53.2C337,393.11,295.14,420.7,250.14,412c-42.65-8.27-57.66-45.75-39.58-74.42,28.23-44.79,86.4-23.27,109.21-66.36,40.76-77,62.18-44.21,118.21-40,48.67,3.62,67.55-30.65,106.29-44.1,30.8-12.71,58.85-10.47,85.69,6.16C698.74,235.82,684.79,332,616.13,371.88Z"/><g class="cls-6"><path class="cls-7" d="M-7.17,146.78c-9.9,0-19.4-3.3-25.63-11l.39-.31c11.91,14.75,36,13.09,51.47,3.11,12.56-8.11,21.81-20.4,30.77-32.29,2.36-3.13,4.8-6.38,7.26-9.49,15.36-19.4,30.41-29.53,46-31,12.25-1.14,24.34,3.18,36,7.36,12.94,4.62,26.31,9.4,39.63,6.51,9.81-2.13,18.21-8.18,26.33-14,3.36-2.42,6.84-4.93,10.38-7.13,24-15,54.26-17.67,78.54-19.85,27.14-2.43,55.2-4.94,78.72-18.6,22.08-12.82,41.12-40.93,32.92-67.77l.48-.15c3.76,12.33,2.13,25.77-4.73,38.86A74.73,74.73,0,0,1,373,20.48c-23.61,13.71-51.73,16.23-78.92,18.66C269.85,41.31,239.7,44,215.75,58.91c-3.52,2.2-7,4.7-10.35,7.12-8.16,5.88-16.6,12-26.52,14.12-13.45,2.92-26.9-1.88-39.9-6.53-11.63-4.16-23.67-8.47-35.81-7.33-15.48,1.44-30.42,11.52-45.68,30.8-2.46,3.11-4.9,6.35-7.26,9.48-9,11.92-18.26,24.25-30.9,32.41A50.18,50.18,0,0,1-7.17,146.78Z"/></g><g class="cls-6"><path class="cls-7" d="M159.83,342.07c-2.58-15-5.24-30.56-3.8-46.06,1.63-17.4,8.52-31.93,19.43-40.91,17.74-14.61,43.87-13,62-10.57,2.82.38,5.71.8,8.51,1.21,18.51,2.72,37.65,5.53,55.29-.43,14.79-5,27-15.76,38.88-26.17,13.49-11.85,27.44-24.11,45.06-27.59,12.53-2.48,25.39-.15,37.83,2.11a196.73,196.73,0,0,0,20.39,3,94.72,94.72,0,0,0,101.37-86.56l.5,0a95.21,95.21,0,0,1-101.9,87,197.1,197.1,0,0,1-20.45-3c-12.39-2.25-25.21-4.57-37.64-2.11-17.49,3.46-31.39,15.67-44.83,27.48-11.88,10.43-24.16,21.23-39.05,26.26-17.75,6-36.95,3.18-55.53.46-2.79-.41-5.68-.83-8.49-1.22-18-2.45-44-4-61.59,10.47-10.8,8.89-17.64,23.3-19.25,40.56-1.44,15.44,1.22,30.94,3.79,45.93Z"/></g><g class="cls-6"><path class="cls-8" d="M57.58,69.79A98.29,98.29,0,0,1-12.37,40.85,98.26,98.26,0,0,1-41.32-29.1,98.26,98.26,0,0,1-12.37-99a98.26,98.26,0,0,1,70-28.95,98.22,98.22,0,0,1,69.94,29,98.26,98.26,0,0,1,29,69.95,98.26,98.26,0,0,1-28.95,70A98.25,98.25,0,0,1,57.58,69.79Zm0-197.29a98.51,98.51,0,0,0-98.4,98.4,98.51,98.51,0,0,0,98.4,98.39A98.5,98.5,0,0,0,156-29.1,98.51,98.51,0,0,0,57.58-127.5Z"/><path class="cls-8" d="M57.58,57.46A86.67,86.67,0,0,1-29-29.1a86.67,86.67,0,0,1,86.57-86.57A86.67,86.67,0,0,1,144.14-29.1,86.66,86.66,0,0,1,57.58,57.46Zm0-172.63A86.17,86.17,0,0,0-28.49-29.1,86.16,86.16,0,0,0,57.58,57,86.16,86.16,0,0,0,143.64-29.1,86.16,86.16,0,0,0,57.58-115.17Z"/><path class="cls-8" d="M57.58,45.13A74.32,74.32,0,0,1-16.66-29.1a74.33,74.33,0,0,1,74.24-74.24A74.32,74.32,0,0,1,131.81-29.1,74.31,74.31,0,0,1,57.58,45.13Zm0-148A73.82,73.82,0,0,0-16.16-29.1,73.82,73.82,0,0,0,57.58,44.63,73.81,73.81,0,0,0,131.31-29.1,73.82,73.82,0,0,0,57.58-102.84Z"/><path class="cls-8" d="M57.58,32.8A62,62,0,0,1-4.33-29.1,62,62,0,0,1,57.58-91a62,62,0,0,1,61.9,61.9A62,62,0,0,1,57.58,32.8Zm0-123.3A61.47,61.47,0,0,0-3.83-29.1,61.47,61.47,0,0,0,57.58,32.3,61.46,61.46,0,0,0,119-29.1,61.46,61.46,0,0,0,57.58-90.5Z"/><path class="cls-8" d="M57.58,20.47A49.63,49.63,0,0,1,8-29.1,49.63,49.63,0,0,1,57.58-78.67,49.62,49.62,0,0,1,107.15-29.1,49.63,49.63,0,0,1,57.58,20.47Zm0-98.64A49.13,49.13,0,0,0,8.5-29.1,49.13,49.13,0,0,0,57.58,20,49.12,49.12,0,0,0,106.65-29.1,49.12,49.12,0,0,0,57.58-78.17Z"/></g><g class="cls-6"><path class="cls-8" d="M522.57,365.25a98.84,98.84,0,1,1,69.94-28.95A98.26,98.26,0,0,1,522.57,365.25Zm0-197.29A98.4,98.4,0,1,0,621,266.35,98.51,98.51,0,0,0,522.57,168Z"/><path class="cls-8" d="M522.57,352.92a86.57,86.57,0,1,1,86.56-86.57A86.66,86.66,0,0,1,522.57,352.92Zm0-172.63a86.07,86.07,0,1,0,86.06,86.06A86.16,86.16,0,0,0,522.57,180.29Z"/><path class="cls-8" d="M522.57,340.59a74.24,74.24,0,1,1,74.23-74.24A74.32,74.32,0,0,1,522.57,340.59Zm0-148a73.74,73.74,0,1,0,73.73,73.73A73.82,73.82,0,0,0,522.57,192.62Z"/><path class="cls-8" d="M522.57,328.26a61.91,61.91,0,1,1,61.9-61.91A62,62,0,0,1,522.57,328.26Zm0-123.31a61.41,61.41,0,1,0,61.4,61.4A61.48,61.48,0,0,0,522.57,205Z"/><path class="cls-8" d="M522.57,315.93a49.58,49.58,0,1,1,49.57-49.58A49.63,49.63,0,0,1,522.57,315.93Zm0-98.65a49.08,49.08,0,1,0,49.07,49.07A49.14,49.14,0,0,0,522.57,217.28Z"/></g></g><g class="cls-2"><circle class="cls-9" cx="262.35" cy="250.74" r="36.28" transform="translate(-41.96 448.46) rotate(-76.72)"/><circle class="cls-10" cx="262.49" cy="240.28" r="26.51" transform="translate(-31.67 440.54) rotate(-76.72)"/></g><g class="cls-2"><circle class="cls-11" cx="152.6" cy="121.01" r="11.06" transform="translate(-0.23 241.73) rotate(-76.72)"/><circle class="cls-12" cx="152.65" cy="117.82" r="8.08" transform="translate(2.91 239.31) rotate(-76.72)"/></g><g class="cls-2"><circle class="cls-13" cx="329.07" cy="65.48" r="22.96"/><circle class="cls-14" cx="329.16" cy="58.86" r="16.78" transform="translate(54.79 249.99) rotate(-45)"/></g><g class="cls-15"><circle class="cls-7" cx="17.2" cy="77.71" r="0.88"/><circle class="cls-7" cx="23.2" cy="77.71" r="0.88"/><circle class="cls-7" cx="29.2" cy="77.71" r="0.88"/><circle class="cls-7" cx="35.2" cy="77.71" r="0.88"/><circle class="cls-7" cx="41.2" cy="77.71" r="0.88"/><circle class="cls-7" cx="47.2" cy="77.71" r="0.88"/><circle class="cls-7" cx="53.2" cy="77.71" r="0.88"/><circle class="cls-7" cx="59.2" cy="77.71" r="0.88"/><circle class="cls-7" cx="65.2" cy="77.71" r="0.88"/><circle class="cls-7" cx="71.2" cy="77.71" r="0.88"/><circle class="cls-7" cx="17.2" cy="83.71" r="0.88"/><circle class="cls-7" cx="23.2" cy="83.71" r="0.88"/><circle class="cls-7" cx="29.2" cy="83.71" r="0.88"/><circle class="cls-7" cx="35.2" cy="83.71" r="0.88"/><circle class="cls-7" cx="41.2" cy="83.71" r="0.88"/><circle class="cls-7" cx="47.2" cy="83.71" r="0.88"/><circle class="cls-7" cx="53.2" cy="83.71" r="0.88"/><circle class="cls-7" cx="59.2" cy="83.71" r="0.88"/><circle class="cls-7" cx="65.2" cy="83.71" r="0.88"/><circle class="cls-7" cx="71.2" cy="83.71" r="0.88"/><circle class="cls-7" cx="17.2" cy="89.71" r="0.88"/><circle class="cls-7" cx="23.2" cy="89.71" r="0.88"/><circle class="cls-7" cx="29.2" cy="89.71" r="0.88"/><circle class="cls-7" cx="35.2" cy="89.71" r="0.88"/><circle class="cls-7" cx="41.2" cy="89.71" r="0.88"/><circle class="cls-7" cx="47.2" cy="89.71" r="0.88"/><circle class="cls-7" cx="53.2" cy="89.71" r="0.88"/><circle class="cls-7" cx="59.2" cy="89.71" r="0.88"/><circle class="cls-7" cx="65.2" cy="89.71" r="0.88"/><circle class="cls-7" cx="71.2" cy="89.71" r="0.88"/><circle class="cls-7" cx="17.2" cy="95.71" r="0.88"/><circle class="cls-7" cx="23.2" cy="95.71" r="0.88"/><circle class="cls-7" cx="29.2" cy="95.71" r="0.88"/><circle class="cls-7" cx="35.2" cy="95.71" r="0.88"/><circle class="cls-7" cx="41.2" cy="95.71" r="0.88"/><circle class="cls-7" cx="47.2" cy="95.71" r="0.88"/><circle class="cls-7" cx="53.2" cy="95.71" r="0.88"/><circle class="cls-7" cx="59.2" cy="95.71" r="0.88"/><circle class="cls-7" cx="65.2" cy="95.71" r="0.88"/><circle class="cls-7" cx="71.2" cy="95.71" r="0.88"/><circle class="cls-7" cx="17.2" cy="101.71" r="0.88"/><circle class="cls-7" cx="23.2" cy="101.71" r="0.88"/><circle class="cls-7" cx="29.2" cy="101.71" r="0.88"/><circle class="cls-7" cx="35.2" cy="101.71" r="0.88"/><circle class="cls-7" cx="41.2" cy="101.71" r="0.88"/><circle class="cls-7" cx="47.2" cy="101.71" r="0.88"/><circle class="cls-7" cx="53.2" cy="101.71" r="0.88"/><circle class="cls-7" cx="59.2" cy="101.71" r="0.88"/><circle class="cls-7" cx="65.2" cy="101.71" r="0.88"/><circle class="cls-7" cx="71.2" cy="101.71" r="0.88"/><circle class="cls-7" cx="17.2" cy="107.71" r="0.88"/><circle class="cls-7" cx="23.2" cy="107.71" r="0.88"/><circle class="cls-7" cx="29.2" cy="107.71" r="0.88"/><circle class="cls-7" cx="35.2" cy="107.71" r="0.88"/><circle class="cls-7" cx="41.2" cy="107.71" r="0.88"/><circle class="cls-7" cx="47.2" cy="107.71" r="0.88"/><circle class="cls-7" cx="53.2" cy="107.71" r="0.88"/><circle class="cls-7" cx="59.2" cy="107.71" r="0.88"/><circle class="cls-7" cx="65.2" cy="107.71" r="0.88"/><circle class="cls-7" cx="71.2" cy="107.71" r="0.88"/><circle class="cls-7" cx="17.2" cy="113.71" r="0.88"/><circle class="cls-7" cx="23.2" cy="113.71" r="0.88"/><circle class="cls-7" cx="29.2" cy="113.71" r="0.88"/><circle class="cls-7" cx="35.2" cy="113.71" r="0.88"/><circle class="cls-7" cx="41.2" cy="113.71" r="0.88"/><circle class="cls-7" cx="47.2" cy="113.71" r="0.88"/><circle class="cls-7" cx="53.2" cy="113.71" r="0.88"/><circle class="cls-7" cx="59.2" cy="113.71" r="0.88"/><circle class="cls-7" cx="65.2" cy="113.71" r="0.88"/><circle class="cls-7" cx="71.2" cy="113.71" r="0.88"/><circle class="cls-7" cx="17.2" cy="119.71" r="0.88"/><circle class="cls-7" cx="23.2" cy="119.71" r="0.88"/><circle class="cls-7" cx="29.2" cy="119.71" r="0.88"/><circle class="cls-7" cx="35.2" cy="119.71" r="0.88"/><circle class="cls-7" cx="41.2" cy="119.71" r="0.88"/><circle class="cls-7" cx="47.2" cy="119.71" r="0.88"/><circle class="cls-7" cx="53.2" cy="119.71" r="0.88"/><circle class="cls-7" cx="59.2" cy="119.71" r="0.88"/><circle class="cls-7" cx="65.2" cy="119.71" r="0.88"/><circle class="cls-7" cx="71.2" cy="119.71" r="0.88"/><circle class="cls-7" cx="17.2" cy="125.71" r="0.88"/><circle class="cls-7" cx="23.2" cy="125.71" r="0.88"/><circle class="cls-7" cx="29.2" cy="125.71" r="0.88"/><circle class="cls-7" cx="35.2" cy="125.71" r="0.88"/><circle class="cls-7" cx="41.2" cy="125.71" r="0.88"/><circle class="cls-7" cx="47.2" cy="125.71" r="0.88"/><circle class="cls-7" cx="53.2" cy="125.71" r="0.88"/><circle class="cls-7" cx="59.2" cy="125.71" r="0.88"/><circle class="cls-7" cx="65.2" cy="125.71" r="0.88"/><circle class="cls-7" cx="71.2" cy="125.71" r="0.88"/><circle class="cls-7" cx="17.2" cy="131.71" r="0.88"/><circle class="cls-7" cx="23.2" cy="131.71" r="0.88"/><circle class="cls-7" cx="29.2" cy="131.71" r="0.88"/><circle class="cls-7" cx="35.2" cy="131.71" r="0.88"/><circle class="cls-7" cx="41.2" cy="131.71" r="0.88"/><circle class="cls-7" cx="47.2" cy="131.71" r="0.88"/><circle class="cls-7" cx="53.2" cy="131.71" r="0.88"/><circle class="cls-7" cx="59.2" cy="131.71" r="0.88"/><circle class="cls-7" cx="65.2" cy="131.71" r="0.88"/><circle class="cls-7" cx="71.2" cy="131.71" r="0.88"/><circle class="cls-7" cx="17.2" cy="137.71" r="0.88"/><circle class="cls-7" cx="23.2" cy="137.71" r="0.88"/><circle class="cls-7" cx="29.2" cy="137.71" r="0.88"/><circle class="cls-7" cx="35.2" cy="137.71" r="0.88"/><circle class="cls-7" cx="41.2" cy="137.71" r="0.88"/><circle class="cls-7" cx="47.2" cy="137.71" r="0.88"/><circle class="cls-7" cx="53.2" cy="137.71" r="0.88"/><circle class="cls-7" cx="59.2" cy="137.71" r="0.88"/><circle class="cls-7" cx="65.2" cy="137.71" r="0.88"/><circle class="cls-7" cx="71.2" cy="137.71" r="0.88"/><circle class="cls-7" cx="17.2" cy="143.71" r="0.88"/><circle class="cls-7" cx="23.2" cy="143.71" r="0.88"/><circle class="cls-7" cx="29.2" cy="143.71" r="0.88"/><circle class="cls-7" cx="35.2" cy="143.71" r="0.88"/><circle class="cls-7" cx="41.2" cy="143.71" r="0.88"/><circle class="cls-7" cx="47.2" cy="143.71" r="0.88"/><circle class="cls-7" cx="53.2" cy="143.71" r="0.88"/><circle class="cls-7" cx="59.2" cy="143.71" r="0.88"/><circle class="cls-7" cx="65.2" cy="143.71" r="0.88"/><circle class="cls-7" cx="71.2" cy="143.71" r="0.88"/><circle class="cls-7" cx="17.2" cy="149.71" r="0.88"/><circle class="cls-7" cx="23.2" cy="149.71" r="0.88"/><circle class="cls-7" cx="29.2" cy="149.71" r="0.88"/><circle class="cls-7" cx="35.2" cy="149.71" r="0.88"/><circle class="cls-7" cx="41.2" cy="149.71" r="0.88"/><circle class="cls-7" cx="47.2" cy="149.71" r="0.88"/><circle class="cls-7" cx="53.2" cy="149.71" r="0.88"/><circle class="cls-7" cx="59.2" cy="149.71" r="0.88"/><circle class="cls-7" cx="65.2" cy="149.71" r="0.88"/><circle class="cls-7" cx="71.2" cy="149.71" r="0.88"/><circle class="cls-7" cx="17.2" cy="155.71" r="0.88"/><circle class="cls-7" cx="23.2" cy="155.71" r="0.88"/><circle class="cls-7" cx="29.2" cy="155.71" r="0.88"/><circle class="cls-7" cx="35.2" cy="155.71" r="0.88"/><circle class="cls-7" cx="41.2" cy="155.71" r="0.88"/><circle class="cls-7" cx="47.2" cy="155.71" r="0.88"/><circle class="cls-7" cx="53.2" cy="155.71" r="0.88"/><circle class="cls-7" cx="59.2" cy="155.71" r="0.88"/><circle class="cls-7" cx="65.2" cy="155.71" r="0.88"/><circle class="cls-7" cx="71.2" cy="155.71" r="0.88"/><circle class="cls-7" cx="17.2" cy="161.71" r="0.88"/><circle class="cls-7" cx="23.2" cy="161.71" r="0.88"/><circle class="cls-7" cx="29.2" cy="161.71" r="0.88"/><circle class="cls-7" cx="35.2" cy="161.71" r="0.88"/><circle class="cls-7" cx="41.2" cy="161.71" r="0.88"/><circle class="cls-7" cx="47.2" cy="161.71" r="0.88"/><circle class="cls-7" cx="53.2" cy="161.71" r="0.88"/><circle class="cls-7" cx="59.2" cy="161.71" r="0.88"/><circle class="cls-7" cx="65.2" cy="161.71" r="0.88"/><circle class="cls-7" cx="71.2" cy="161.71" r="0.88"/><circle class="cls-7" cx="17.2" cy="167.71" r="0.88"/><circle class="cls-7" cx="23.2" cy="167.71" r="0.88"/><circle class="cls-7" cx="29.2" cy="167.71" r="0.88"/><circle class="cls-7" cx="35.2" cy="167.71" r="0.88"/><circle class="cls-7" cx="41.2" cy="167.71" r="0.88"/><circle class="cls-7" cx="47.2" cy="167.71" r="0.88"/><circle class="cls-7" cx="53.2" cy="167.71" r="0.88"/><circle class="cls-7" cx="59.2" cy="167.71" r="0.88"/><circle class="cls-7" cx="65.2" cy="167.71" r="0.88"/><circle class="cls-7" cx="71.2" cy="167.71" r="0.88"/><circle class="cls-7" cx="17.2" cy="173.71" r="0.88"/><circle class="cls-7" cx="23.2" cy="173.71" r="0.88"/><circle class="cls-7" cx="29.2" cy="173.71" r="0.88"/><circle class="cls-7" cx="35.2" cy="173.71" r="0.88"/><circle class="cls-7" cx="41.2" cy="173.71" r="0.88"/><circle class="cls-7" cx="47.2" cy="173.71" r="0.88"/><circle class="cls-7" cx="53.2" cy="173.71" r="0.88"/><circle class="cls-7" cx="59.2" cy="173.71" r="0.88"/><circle class="cls-7" cx="65.2" cy="173.71" r="0.88"/><circle class="cls-7" cx="71.2" cy="173.71" r="0.88"/><circle class="cls-7" cx="17.2" cy="179.71" r="0.88"/><circle class="cls-7" cx="23.2" cy="179.71" r="0.88"/><circle class="cls-7" cx="29.2" cy="179.71" r="0.88"/><circle class="cls-7" cx="35.2" cy="179.71" r="0.88"/><circle class="cls-7" cx="41.2" cy="179.71" r="0.88"/><circle class="cls-7" cx="47.2" cy="179.71" r="0.88"/><circle class="cls-7" cx="53.2" cy="179.71" r="0.88"/><circle class="cls-7" cx="59.2" cy="179.71" r="0.88"/><circle class="cls-7" cx="65.2" cy="179.71" r="0.88"/><circle class="cls-7" cx="71.2" cy="179.71" r="0.88"/><circle class="cls-7" cx="17.2" cy="185.71" r="0.88"/><circle class="cls-7" cx="23.2" cy="185.71" r="0.88"/><circle class="cls-7" cx="29.2" cy="185.71" r="0.88"/><circle class="cls-7" cx="35.2" cy="185.71" r="0.88"/><circle class="cls-7" cx="41.2" cy="185.71" r="0.88"/><circle class="cls-7" cx="47.2" cy="185.71" r="0.88"/><circle class="cls-7" cx="53.2" cy="185.71" r="0.88"/><circle class="cls-7" cx="59.2" cy="185.71" r="0.88"/><circle class="cls-7" cx="65.2" cy="185.71" r="0.88"/><circle class="cls-7" cx="71.2" cy="185.71" r="0.88"/><circle class="cls-7" cx="17.2" cy="191.71" r="0.88"/><circle class="cls-7" cx="23.2" cy="191.71" r="0.88"/><circle class="cls-7" cx="29.2" cy="191.71" r="0.88"/><circle class="cls-7" cx="35.2" cy="191.71" r="0.88"/><circle class="cls-7" cx="41.2" cy="191.71" r="0.88"/><circle class="cls-7" cx="47.2" cy="191.71" r="0.88"/><circle class="cls-7" cx="53.2" cy="191.71" r="0.88"/><circle class="cls-7" cx="59.2" cy="191.71" r="0.88"/><circle class="cls-7" cx="65.2" cy="191.71" r="0.88"/><circle class="cls-7" cx="71.2" cy="191.71" r="0.88"/><circle class="cls-7" cx="17.2" cy="197.71" r="0.88"/><circle class="cls-7" cx="23.2" cy="197.71" r="0.88"/><circle class="cls-7" cx="29.2" cy="197.71" r="0.88"/><circle class="cls-7" cx="35.2" cy="197.71" r="0.88"/><circle class="cls-7" cx="41.2" cy="197.71" r="0.88"/><circle class="cls-7" cx="47.2" cy="197.71" r="0.88"/><circle class="cls-7" cx="53.2" cy="197.71" r="0.88"/><circle class="cls-7" cx="59.2" cy="197.71" r="0.88"/><circle class="cls-7" cx="65.2" cy="197.71" r="0.88"/><circle class="cls-7" cx="71.2" cy="197.71" r="0.88"/><circle class="cls-7" cx="17.2" cy="203.71" r="0.88"/><circle class="cls-7" cx="23.2" cy="203.71" r="0.88"/><circle class="cls-7" cx="29.2" cy="203.71" r="0.88"/><circle class="cls-7" cx="35.2" cy="203.71" r="0.88"/><circle class="cls-7" cx="41.2" cy="203.71" r="0.88"/><circle class="cls-7" cx="47.2" cy="203.71" r="0.88"/><circle class="cls-7" cx="53.2" cy="203.71" r="0.88"/><circle class="cls-7" cx="59.2" cy="203.71" r="0.88"/><circle class="cls-7" cx="65.2" cy="203.71" r="0.88"/><circle class="cls-7" cx="71.2" cy="203.71" r="0.88"/><circle class="cls-7" cx="17.2" cy="209.71" r="0.88"/><circle class="cls-7" cx="23.2" cy="209.71" r="0.88"/><circle class="cls-7" cx="29.2" cy="209.71" r="0.88"/><circle class="cls-7" cx="35.2" cy="209.71" r="0.88"/><circle class="cls-7" cx="41.2" cy="209.71" r="0.88"/><circle class="cls-7" cx="47.2" cy="209.71" r="0.88"/><circle class="cls-7" cx="53.2" cy="209.71" r="0.88"/><circle class="cls-7" cx="59.2" cy="209.71" r="0.88"/><circle class="cls-7" cx="65.2" cy="209.71" r="0.88"/><circle class="cls-7" cx="71.2" cy="209.71" r="0.88"/><circle class="cls-7" cx="17.2" cy="215.71" r="0.88"/><circle class="cls-7" cx="23.2" cy="215.71" r="0.88"/><circle class="cls-7" cx="29.2" cy="215.71" r="0.88"/><circle class="cls-7" cx="35.2" cy="215.71" r="0.88"/><circle class="cls-7" cx="41.2" cy="215.71" r="0.88"/><circle class="cls-7" cx="47.2" cy="215.71" r="0.88"/><circle class="cls-7" cx="53.2" cy="215.71" r="0.88"/><circle class="cls-7" cx="59.2" cy="215.71" r="0.88"/><circle class="cls-7" cx="65.2" cy="215.71" r="0.88"/><circle class="cls-7" cx="71.2" cy="215.71" r="0.88"/><circle class="cls-7" cx="17.2" cy="221.71" r="0.88"/><circle class="cls-7" cx="23.2" cy="221.71" r="0.88"/><circle class="cls-7" cx="29.2" cy="221.71" r="0.88"/><circle class="cls-7" cx="35.2" cy="221.71" r="0.88"/><circle class="cls-7" cx="41.2" cy="221.71" r="0.88"/><circle class="cls-7" cx="47.2" cy="221.71" r="0.88"/><circle class="cls-7" cx="53.2" cy="221.71" r="0.88"/><circle class="cls-7" cx="59.2" cy="221.71" r="0.88"/><circle class="cls-7" cx="65.2" cy="221.71" r="0.88"/><circle class="cls-7" cx="71.2" cy="221.71" r="0.88"/><circle class="cls-7" cx="17.2" cy="227.71" r="0.88"/><circle class="cls-7" cx="23.2" cy="227.71" r="0.88"/><circle class="cls-7" cx="29.2" cy="227.71" r="0.88"/><circle class="cls-7" cx="35.2" cy="227.71" r="0.88"/><circle class="cls-7" cx="41.2" cy="227.71" r="0.88"/><circle class="cls-7" cx="47.2" cy="227.71" r="0.88"/><circle class="cls-7" cx="53.2" cy="227.71" r="0.88"/><circle class="cls-7" cx="59.2" cy="227.71" r="0.88"/><circle class="cls-7" cx="65.2" cy="227.71" r="0.88"/><circle class="cls-7" cx="71.2" cy="227.71" r="0.88"/><circle class="cls-7" cx="17.2" cy="233.71" r="0.88"/><circle class="cls-7" cx="23.2" cy="233.71" r="0.88"/><circle class="cls-7" cx="29.2" cy="233.71" r="0.88"/><circle class="cls-7" cx="35.2" cy="233.71" r="0.88"/><circle class="cls-7" cx="41.2" cy="233.71" r="0.88"/><circle class="cls-7" cx="47.2" cy="233.71" r="0.88"/><circle class="cls-7" cx="53.2" cy="233.71" r="0.88"/><circle class="cls-7" cx="59.2" cy="233.71" r="0.88"/><circle class="cls-7" cx="65.2" cy="233.71" r="0.88"/><circle class="cls-7" cx="71.2" cy="233.71" r="0.88"/><circle class="cls-7" cx="17.2" cy="239.71" r="0.88"/><circle class="cls-7" cx="23.2" cy="239.71" r="0.88"/><circle class="cls-7" cx="29.2" cy="239.71" r="0.88"/><circle class="cls-7" cx="35.2" cy="239.71" r="0.88"/><circle class="cls-7" cx="41.2" cy="239.71" r="0.88"/><circle class="cls-7" cx="47.2" cy="239.71" r="0.88"/><circle class="cls-7" cx="53.2" cy="239.71" r="0.88"/><circle class="cls-7" cx="59.2" cy="239.71" r="0.88"/><circle class="cls-7" cx="65.2" cy="239.71" r="0.88"/><circle class="cls-7" cx="71.2" cy="239.71" r="0.88"/><circle class="cls-7" cx="17.2" cy="245.71" r="0.88"/><circle class="cls-7" cx="23.2" cy="245.71" r="0.88"/><circle class="cls-7" cx="29.2" cy="245.71" r="0.88"/><circle class="cls-7" cx="35.2" cy="245.71" r="0.88"/><circle class="cls-7" cx="41.2" cy="245.71" r="0.88"/><circle class="cls-7" cx="47.2" cy="245.71" r="0.88"/><circle class="cls-7" cx="53.2" cy="245.71" r="0.88"/><circle class="cls-7" cx="59.2" cy="245.71" r="0.88"/><circle class="cls-7" cx="65.2" cy="245.71" r="0.88"/><circle class="cls-7" cx="71.2" cy="245.71" r="0.88"/></g><g class="cls-15"><path class="cls-7" d="M432.28,162.31a.89.89,0,1,0-.88-.88A.89.89,0,0,0,432.28,162.31Z"/><path class="cls-7" d="M438.28,162.31a.89.89,0,1,0-.88-.88A.89.89,0,0,0,438.28,162.31Z"/><path class="cls-7" d="M444.28,162.31a.89.89,0,1,0-.88-.88A.89.89,0,0,0,444.28,162.31Z"/><path class="cls-7" d="M450.28,162.31a.89.89,0,1,0-.88-.88A.89.89,0,0,0,450.28,162.31Z"/><path class="cls-7" d="M456.28,162.31a.89.89,0,1,0-.88-.88A.89.89,0,0,0,456.28,162.31Z"/><path class="cls-7" d="M462.28,162.31a.89.89,0,1,0-.88-.88A.89.89,0,0,0,462.28,162.31Z"/><path class="cls-7" d="M432.28,168.31a.89.89,0,1,0-.88-.88A.89.89,0,0,0,432.28,168.31Z"/><path class="cls-7" d="M438.28,168.31a.89.89,0,1,0-.88-.88A.89.89,0,0,0,438.28,168.31Z"/><path class="cls-7" d="M444.28,168.31a.89.89,0,1,0-.88-.88A.89.89,0,0,0,444.28,168.31Z"/><path class="cls-7" d="M450.28,168.31a.89.89,0,1,0-.88-.88A.89.89,0,0,0,450.28,168.31Z"/><path class="cls-7" d="M456.28,168.31a.89.89,0,1,0-.88-.88A.89.89,0,0,0,456.28,168.31Z"/><path class="cls-7" d="M462.28,168.31a.89.89,0,1,0-.88-.88A.89.89,0,0,0,462.28,168.31Z"/><path class="cls-7" d="M432.28,174.31a.89.89,0,1,0-.88-.88A.89.89,0,0,0,432.28,174.31Z"/><path class="cls-7" d="M438.28,174.31a.89.89,0,1,0-.88-.88A.89.89,0,0,0,438.28,174.31Z"/><path class="cls-7" d="M444.28,174.31a.89.89,0,1,0-.88-.88A.89.89,0,0,0,444.28,174.31Z"/><path class="cls-7" d="M450.28,174.31a.89.89,0,1,0-.88-.88A.89.89,0,0,0,450.28,174.31Z"/><path class="cls-7" d="M456.28,174.31a.89.89,0,1,0-.88-.88A.89.89,0,0,0,456.28,174.31Z"/><path class="cls-7" d="M462.28,174.31a.89.89,0,1,0-.88-.88A.89.89,0,0,0,462.28,174.31Z"/><path class="cls-7" d="M432.28,180.31a.89.89,0,1,0-.88-.88A.89.89,0,0,0,432.28,180.31Z"/><path class="cls-7" d="M438.28,180.31a.89.89,0,1,0-.88-.88A.89.89,0,0,0,438.28,180.31Z"/><path class="cls-7" d="M444.28,180.31a.89.89,0,1,0-.88-.88A.89.89,0,0,0,444.28,180.31Z"/><path class="cls-7" d="M450.28,180.31a.89.89,0,1,0-.88-.88A.89.89,0,0,0,450.28,180.31Z"/><path class="cls-7" d="M456.28,180.31a.89.89,0,1,0-.88-.88A.89.89,0,0,0,456.28,180.31Z"/><path class="cls-7" d="M462.28,180.31a.89.89,0,1,0-.88-.88A.89.89,0,0,0,462.28,180.31Z"/><path class="cls-7" d="M432.28,186.31a.89.89,0,1,0-.88-.88A.89.89,0,0,0,432.28,186.31Z"/><path class="cls-7" d="M438.28,186.31a.89.89,0,1,0-.88-.88A.89.89,0,0,0,438.28,186.31Z"/><path class="cls-7" d="M444.28,186.31a.89.89,0,1,0-.88-.88A.89.89,0,0,0,444.28,186.31Z"/><path class="cls-7" d="M450.28,186.31a.89.89,0,1,0-.88-.88A.89.89,0,0,0,450.28,186.31Z"/><path class="cls-7" d="M456.28,186.31a.89.89,0,1,0-.88-.88A.89.89,0,0,0,456.28,186.31Z"/><path class="cls-7" d="M462.28,186.31a.89.89,0,1,0-.88-.88A.89.89,0,0,0,462.28,186.31Z"/><path class="cls-7" d="M432.28,192.31a.89.89,0,1,0-.88-.88A.89.89,0,0,0,432.28,192.31Z"/><path class="cls-7" d="M438.28,192.31a.89.89,0,1,0-.88-.88A.89.89,0,0,0,438.28,192.31Z"/><path class="cls-7" d="M444.28,192.31a.89.89,0,1,0-.88-.88A.89.89,0,0,0,444.28,192.31Z"/><path class="cls-7" d="M450.28,192.31a.89.89,0,1,0-.88-.88A.89.89,0,0,0,450.28,192.31Z"/><path class="cls-7" d="M456.28,192.31a.89.89,0,1,0-.88-.88A.89.89,0,0,0,456.28,192.31Z"/><path class="cls-7" d="M462.28,192.31a.89.89,0,1,0-.88-.88A.89.89,0,0,0,462.28,192.31Z"/><path class="cls-7" d="M432.28,198.31a.89.89,0,1,0-.88-.88A.89.89,0,0,0,432.28,198.31Z"/><path class="cls-7" d="M438.28,198.31a.89.89,0,1,0-.88-.88A.89.89,0,0,0,438.28,198.31Z"/><path class="cls-7" d="M444.28,198.31a.89.89,0,1,0-.88-.88A.89.89,0,0,0,444.28,198.31Z"/><path class="cls-7" d="M450.28,198.31a.89.89,0,1,0-.88-.88A.89.89,0,0,0,450.28,198.31Z"/><path class="cls-7" d="M456.28,198.31a.89.89,0,1,0-.88-.88A.89.89,0,0,0,456.28,198.31Z"/><path class="cls-7" d="M462.28,198.31a.89.89,0,1,0-.88-.88A.89.89,0,0,0,462.28,198.31Z"/><path class="cls-7" d="M432.28,204.31a.89.89,0,1,0-.88-.88A.89.89,0,0,0,432.28,204.31Z"/><path class="cls-7" d="M438.28,204.31a.89.89,0,1,0-.88-.88A.89.89,0,0,0,438.28,204.31Z"/><path class="cls-7" d="M444.28,204.31a.89.89,0,1,0-.88-.88A.89.89,0,0,0,444.28,204.31Z"/><path class="cls-7" d="M450.28,204.31a.89.89,0,1,0-.88-.88A.89.89,0,0,0,450.28,204.31Z"/><path class="cls-7" d="M456.28,204.31a.89.89,0,1,0-.88-.88A.89.89,0,0,0,456.28,204.31Z"/><path class="cls-7" d="M462.28,204.31a.89.89,0,1,0-.88-.88A.89.89,0,0,0,462.28,204.31Z"/><path class="cls-7" d="M432.28,210.31a.89.89,0,1,0-.88-.88A.89.89,0,0,0,432.28,210.31Z"/><path class="cls-7" d="M438.28,210.31a.89.89,0,1,0-.88-.88A.89.89,0,0,0,438.28,210.31Z"/><path class="cls-7" d="M444.28,210.31a.89.89,0,1,0-.88-.88A.89.89,0,0,0,444.28,210.31Z"/><path class="cls-7" d="M450.28,210.31a.89.89,0,1,0-.88-.88A.89.89,0,0,0,450.28,210.31Z"/><path class="cls-7" d="M456.28,210.31a.89.89,0,1,0-.88-.88A.89.89,0,0,0,456.28,210.31Z"/><path class="cls-7" d="M462.28,210.31a.89.89,0,1,0-.88-.88A.89.89,0,0,0,462.28,210.31Z"/><path class="cls-7" d="M432.28,216.31a.89.89,0,1,0-.88-.88A.89.89,0,0,0,432.28,216.31Z"/><path class="cls-7" d="M438.28,216.31a.89.89,0,1,0-.88-.88A.89.89,0,0,0,438.28,216.31Z"/><path class="cls-7" d="M444.28,216.31a.89.89,0,1,0-.88-.88A.89.89,0,0,0,444.28,216.31Z"/><path class="cls-7" d="M450.28,216.31a.89.89,0,1,0-.88-.88A.89.89,0,0,0,450.28,216.31Z"/><path class="cls-7" d="M456.28,216.31a.89.89,0,1,0-.88-.88A.89.89,0,0,0,456.28,216.31Z"/><path class="cls-7" d="M462.28,216.31a.89.89,0,1,0-.88-.88A.89.89,0,0,0,462.28,216.31Z"/><path class="cls-7" d="M432.28,222.31a.89.89,0,1,0-.88-.88A.89.89,0,0,0,432.28,222.31Z"/><path class="cls-7" d="M438.28,222.31a.89.89,0,1,0-.88-.88A.89.89,0,0,0,438.28,222.31Z"/><path class="cls-7" d="M444.28,222.31a.89.89,0,1,0-.88-.88A.89.89,0,0,0,444.28,222.31Z"/><path class="cls-7" d="M450.28,222.31a.89.89,0,1,0-.88-.88A.89.89,0,0,0,450.28,222.31Z"/><path class="cls-7" d="M456.28,222.31a.89.89,0,1,0-.88-.88A.89.89,0,0,0,456.28,222.31Z"/><path class="cls-7" d="M462.28,222.31a.89.89,0,1,0-.88-.88A.89.89,0,0,0,462.28,222.31Z"/><path class="cls-7" d="M432.28,228.31a.89.89,0,1,0-.88-.88A.89.89,0,0,0,432.28,228.31Z"/><path class="cls-7" d="M438.28,228.31a.89.89,0,1,0-.88-.88A.89.89,0,0,0,438.28,228.31Z"/><path class="cls-7" d="M444.28,228.31a.89.89,0,1,0-.88-.88A.89.89,0,0,0,444.28,228.31Z"/><path class="cls-7" d="M450.28,228.31a.89.89,0,1,0-.88-.88A.89.89,0,0,0,450.28,228.31Z"/><path class="cls-7" d="M456.28,228.31a.89.89,0,1,0-.88-.88A.89.89,0,0,0,456.28,228.31Z"/><path class="cls-7" d="M462.28,228.31a.89.89,0,1,0-.88-.88A.89.89,0,0,0,462.28,228.31Z"/><path class="cls-7" d="M432.28,234.31a.89.89,0,1,0-.88-.88A.89.89,0,0,0,432.28,234.31Z"/><path class="cls-7" d="M438.28,234.31a.89.89,0,1,0-.88-.88A.89.89,0,0,0,438.28,234.31Z"/><path class="cls-7" d="M444.28,234.31a.89.89,0,1,0-.88-.88A.89.89,0,0,0,444.28,234.31Z"/><path class="cls-7" d="M450.28,234.31a.89.89,0,1,0-.88-.88A.89.89,0,0,0,450.28,234.31Z"/><path class="cls-7" d="M456.28,234.31a.89.89,0,1,0-.88-.88A.89.89,0,0,0,456.28,234.31Z"/><path class="cls-7" d="M462.28,234.31a.89.89,0,1,0-.88-.88A.89.89,0,0,0,462.28,234.31Z"/><path class="cls-7" d="M432.28,240.31a.89.89,0,1,0-.88-.88A.89.89,0,0,0,432.28,240.31Z"/><path class="cls-7" d="M438.28,240.31a.89.89,0,1,0-.88-.88A.89.89,0,0,0,438.28,240.31Z"/><path class="cls-7" d="M444.28,240.31a.89.89,0,1,0-.88-.88A.89.89,0,0,0,444.28,240.31Z"/><path class="cls-7" d="M450.28,240.31a.89.89,0,1,0-.88-.88A.89.89,0,0,0,450.28,240.31Z"/><path class="cls-7" d="M456.28,240.31a.89.89,0,1,0-.88-.88A.89.89,0,0,0,456.28,240.31Z"/><path class="cls-7" d="M462.28,240.31a.89.89,0,1,0-.88-.88A.89.89,0,0,0,462.28,240.31Z"/><path class="cls-7" d="M432.28,246.31a.89.89,0,1,0-.88-.88A.89.89,0,0,0,432.28,246.31Z"/><path class="cls-7" d="M438.28,246.31a.89.89,0,1,0-.88-.88A.89.89,0,0,0,438.28,246.31Z"/><path class="cls-7" d="M444.28,246.31a.89.89,0,1,0-.88-.88A.89.89,0,0,0,444.28,246.31Z"/><path class="cls-7" d="M450.28,246.31a.89.89,0,1,0-.88-.88A.89.89,0,0,0,450.28,246.31Z"/><path class="cls-7" d="M456.28,246.31a.89.89,0,1,0-.88-.88A.89.89,0,0,0,456.28,246.31Z"/><path class="cls-7" d="M462.28,246.31a.89.89,0,1,0-.88-.88A.89.89,0,0,0,462.28,246.31Z"/></g></g></g></svg>