<?xml version="1.0" encoding="utf-8"?>
<!-- Generator: Adobe Illustrator 23.0.1, SVG Export Plug-In . SVG Version: 6.00 Build 0)  -->
<svg version="1.1" id="Capa_1" xmlns="http://www.w3.org/2000/svg" xmlns:xlink="http://www.w3.org/1999/xlink" x="0px" y="0px"
	 viewBox="0 0 487.7 487.7" style="enable-background:new 0 0 487.7 487.7;" xml:space="preserve">
<style type="text/css">
	.st0{opacity:0.66;}
</style>
<g class="st0">
	<g>
		<path d="M349.9,325.3c-44.4-14.5-62.9-32.6-62.9-32.6l-1.5,1.4c-13.2,12.4-27.8,19.7-41.1,19.7h-1.3c-13.3,0-27.9-7.3-41.1-19.7
			l-1.5-1.4c0,0-18.5,18.1-62.9,32.6c-65.6,24.5-45.9,124.3-45.9,125c2.1,11.1,3.3,14.9,4.3,15.4c65.9,29.3,229.6,29.3,295.5,0
			c1-0.4,2.3-4.2,4.3-15.4C395.8,449.6,415.8,350.2,349.9,325.3z"/>
		<path d="M312.7,198l-0.6-0.6c-3.7-3.4-3.4-3.2-3.4-3.2s6.4-32.5,1.3-47.9c-8.1-24.5-56.5-41-66.2-42.9c0,0-5.9-1.2-6.3-1.2
			c0,0-7.6-1.5-16.5,2.3c-5.8,2.2-35.9,15.9-44.5,41.8c-5.2,15.4,1.3,47.9,1.3,47.9s0.3-0.2-3.4,3.2l-0.5,0.6
			c-2.5,2.8-1.9,11.7,0.8,20.9c2.5,9.2,5.7,11.7,6.5,13.9c7.8,36.8,35.1,68.2,62.8,68.2s53.5-31.4,61.4-68.2c0.8-2.2,4-4.7,6.5-13.9
			C314.6,209.7,315.3,200.3,312.7,198z"/>
	</g>
</g>
</svg>
