<svg xmlns="http://www.w3.org/2000/svg" viewBox="0 0 178.99 178.68"><defs><style>.cls-1{fill:#e1ad3d;}.cls-2{fill:#f4cc6a;}.cls-3{fill:#c68f30;}</style></defs><title>ranking</title><g id="Camada_2" data-name="Camada 2"><g id="OBJECTS"><path class="cls-1" d="M60.92,19.63a9.94,9.94,0,0,1-5.32-6.15,9.94,9.94,0,0,1,13.45,6.27A9.94,9.94,0,0,1,60.92,19.63Z"/><path class="cls-1" d="M61.74,8.13a9.91,9.91,0,0,1-6.15,5.32A9.94,9.94,0,0,1,61.86,0,9.9,9.9,0,0,1,61.74,8.13Z"/><path class="cls-1" d="M50.33,25A9.94,9.94,0,0,1,44,19.87a9.94,9.94,0,0,1,14.33,3.84A9.94,9.94,0,0,1,50.33,25Z"/><path class="cls-1" d="M49.14,13.54A9.89,9.89,0,0,1,44,19.84,9.94,9.94,0,0,1,47.85,5.51,9.9,9.9,0,0,1,49.14,13.54Z"/><path class="cls-1" d="M40.83,32.16a9.91,9.91,0,0,1-7.1-4,9.93,9.93,0,0,1,14.78,1.29A10,10,0,0,1,40.83,32.16Z"/><path class="cls-1" d="M37.67,21.07a9.91,9.91,0,0,1-4,7.1A9.93,9.93,0,0,1,35,13.39,9.88,9.88,0,0,1,37.67,21.07Z"/><path class="cls-1" d="M32.7,40.86A9.91,9.91,0,0,1,25,38.19,9.93,9.93,0,0,1,39.8,36.9,9.91,9.91,0,0,1,32.7,40.86Z"/><path class="cls-1" d="M27.67,30.49A10,10,0,0,1,25,38.17a9.93,9.93,0,0,1-1.29-14.78A9.93,9.93,0,0,1,27.67,30.49Z"/><path class="cls-1" d="M26.2,50.86a9.91,9.91,0,0,1-8-1.3,9.94,9.94,0,0,1,14.33-3.84A9.93,9.93,0,0,1,26.2,50.86Z"/><path class="cls-1" d="M19.44,41.52a9.9,9.9,0,0,1-1.29,8,9.94,9.94,0,0,1-3.84-14.33A9.89,9.89,0,0,1,19.44,41.52Z"/><path class="cls-1" d="M21.52,61.84a9.94,9.94,0,0,1-8.13.12,9.94,9.94,0,0,1,13.45-6.27A9.91,9.91,0,0,1,21.52,61.84Z"/><path class="cls-1" d="M13.24,53.82A9.9,9.9,0,0,1,13.36,62,9.94,9.94,0,0,1,7.09,48.5,9.89,9.89,0,0,1,13.24,53.82Z"/><path class="cls-1" d="M18.81,73.47a9.93,9.93,0,0,1-8,1.53A9.94,9.94,0,0,1,23,66.49,9.92,9.92,0,0,1,18.81,73.47Z"/><path class="cls-1" d="M9.26,67a9.9,9.9,0,0,1,1.53,8A9.92,9.92,0,0,1,2.28,62.84,9.89,9.89,0,0,1,9.26,67Z"/><path class="cls-1" d="M18.14,85.4a9.94,9.94,0,0,1-7.6,2.9A9.94,9.94,0,0,1,21,77.8,9.91,9.91,0,0,1,18.14,85.4Z"/><path class="cls-1" d="M7.61,80.7a9.92,9.92,0,0,1,2.9,7.6A9.94,9.94,0,0,1,0,77.8,9.9,9.9,0,0,1,7.61,80.7Z"/><path class="cls-1" d="M19.54,97.18a9.89,9.89,0,0,1-7,4.17A9.94,9.94,0,0,1,21.07,89.2,9.9,9.9,0,0,1,19.54,97.18Z"/><path class="cls-1" d="M8.36,94.38a9.89,9.89,0,0,1,4.17,7A9.94,9.94,0,0,1,.38,92.85,9.86,9.86,0,0,1,8.36,94.38Z"/><path class="cls-1" d="M23,108.54a10,10,0,0,1-6.15,5.32,9.94,9.94,0,0,1,6.27-13.45A9.94,9.94,0,0,1,23,108.54Z"/><path class="cls-1" d="M11.49,107.72a9.91,9.91,0,0,1,5.32,6.15A9.94,9.94,0,0,1,3.36,107.6,9.9,9.9,0,0,1,11.49,107.72Z"/><path class="cls-1" d="M28.37,119.13a9.94,9.94,0,0,1-5.14,6.3,9.94,9.94,0,0,1,3.84-14.33A9.94,9.94,0,0,1,28.37,119.13Z"/><path class="cls-1" d="M16.9,120.32a9.89,9.89,0,0,1,6.3,5.13,9.94,9.94,0,0,1-14.33-3.84A9.9,9.9,0,0,1,16.9,120.32Z"/><path class="cls-1" d="M35.52,128.63a9.93,9.93,0,0,1-4,7.1A9.93,9.93,0,0,1,32.85,121,10,10,0,0,1,35.52,128.63Z"/><path class="cls-1" d="M24.43,131.79a9.91,9.91,0,0,1,7.1,4,9.93,9.93,0,0,1-14.78-1.29A9.88,9.88,0,0,1,24.43,131.79Z"/><path class="cls-1" d="M44.22,136.76a9.91,9.91,0,0,1-2.67,7.68,9.93,9.93,0,0,1-1.29-14.78A9.91,9.91,0,0,1,44.22,136.76Z"/><path class="cls-1" d="M33.85,141.79a10,10,0,0,1,7.68,2.67,9.93,9.93,0,0,1-14.78,1.29A9.93,9.93,0,0,1,33.85,141.79Z"/><path class="cls-1" d="M54.22,143.26a9.91,9.91,0,0,1-1.3,8A9.94,9.94,0,0,1,49.08,137,10,10,0,0,1,54.22,143.26Z"/><path class="cls-1" d="M44.88,150a9.9,9.9,0,0,1,8,1.29,9.94,9.94,0,0,1-14.33,3.84A9.89,9.89,0,0,1,44.88,150Z"/><path class="cls-1" d="M65.2,147.94a9.94,9.94,0,0,1,.12,8.13,9.94,9.94,0,0,1-6.27-13.45A9.91,9.91,0,0,1,65.2,147.94Z"/><path class="cls-1" d="M57.18,156.22a9.9,9.9,0,0,1,8.13-.12,9.94,9.94,0,0,1-13.45,6.27A9.89,9.89,0,0,1,57.18,156.22Z"/><path class="cls-1" d="M74.91,9.85a9.89,9.89,0,0,1-8.11-.59A9.93,9.93,0,0,1,80.74,4.19,9.9,9.9,0,0,1,74.91,9.85Z"/><path class="cls-1" d="M100.56,178.68a87.9,87.9,0,0,0-35.47-21.86c-.9-.3-1.73-.58-2.49-.85-31.69-11.09-53-40.42-53-73,0-36.64,26.92-68.6,64-76l.24,1.18C37.35,15.47,10.83,46.93,10.83,83c0,32,21,60.91,52.17,71.83.75.27,1.58.55,2.48.85,9.41,3.19,26.18,8.54,39.93,22.14Z"/><path class="cls-1" d="M118.07,19.63a9.89,9.89,0,0,0,5.31-6.15,9.92,9.92,0,0,0-13.44,6.27A9.94,9.94,0,0,0,118.07,19.63Z"/><path class="cls-1" d="M117.24,8.13a10,10,0,0,0,6.15,5.32A9.94,9.94,0,0,0,117.12,0,9.94,9.94,0,0,0,117.24,8.13Z"/><path class="cls-1" d="M128.66,25a9.94,9.94,0,0,0,6.3-5.14,9.94,9.94,0,0,0-14.33,3.84A9.94,9.94,0,0,0,128.66,25Z"/><path class="cls-1" d="M129.84,13.54a9.91,9.91,0,0,0,5.14,6.3,9.94,9.94,0,0,0-3.84-14.33A9.94,9.94,0,0,0,129.84,13.54Z"/><path class="cls-1" d="M138.16,32.16a9.93,9.93,0,0,0,7.1-4,9.93,9.93,0,0,0-14.78,1.29A10,10,0,0,0,138.16,32.16Z"/><path class="cls-1" d="M141.32,21.07a9.91,9.91,0,0,0,4,7.1A9.93,9.93,0,0,0,144,13.39,9.88,9.88,0,0,0,141.32,21.07Z"/><path class="cls-1" d="M146.28,40.86A9.88,9.88,0,0,0,154,38.19a9.93,9.93,0,0,0-14.78-1.29A9.93,9.93,0,0,0,146.28,40.86Z"/><path class="cls-1" d="M151.32,30.49A9.88,9.88,0,0,0,154,38.17a9.93,9.93,0,0,0,1.29-14.78A9.93,9.93,0,0,0,151.32,30.49Z"/><path class="cls-1" d="M152.78,50.86a9.94,9.94,0,0,0,8-1.3,9.94,9.94,0,0,0-14.33-3.84A9.93,9.93,0,0,0,152.78,50.86Z"/><path class="cls-1" d="M159.55,41.52a9.9,9.9,0,0,0,1.29,8,9.94,9.94,0,0,0,3.84-14.33A9.89,9.89,0,0,0,159.55,41.52Z"/><path class="cls-1" d="M157.46,61.84a9.94,9.94,0,0,0,8.13.12,9.92,9.92,0,0,0-13.44-6.27A9.89,9.89,0,0,0,157.46,61.84Z"/><path class="cls-1" d="M165.74,53.82a9.94,9.94,0,0,0-.12,8.13,9.94,9.94,0,0,0,6.27-13.45A9.94,9.94,0,0,0,165.74,53.82Z"/><path class="cls-1" d="M160.18,73.47a9.92,9.92,0,0,0,8,1.53A9.94,9.94,0,0,0,156,66.49,9.89,9.89,0,0,0,160.18,73.47Z"/><path class="cls-1" d="M169.73,67a9.9,9.9,0,0,0-1.53,8,9.92,9.92,0,0,0,8.51-12.15A9.89,9.89,0,0,0,169.73,67Z"/><path class="cls-1" d="M160.85,85.4a9.94,9.94,0,0,0,7.6,2.9A10,10,0,0,0,158,77.8,9.88,9.88,0,0,0,160.85,85.4Z"/><path class="cls-1" d="M171.37,80.7a9.91,9.91,0,0,0-2.89,7.6A9.94,9.94,0,0,0,179,77.8,9.94,9.94,0,0,0,171.37,80.7Z"/><path class="cls-1" d="M159.45,97.18a9.89,9.89,0,0,0,7,4.17,9.94,9.94,0,0,0-8.51-12.15A9.87,9.87,0,0,0,159.45,97.18Z"/><path class="cls-1" d="M170.63,94.38a9.89,9.89,0,0,0-4.17,7,9.94,9.94,0,0,0,12.15-8.51A9.86,9.86,0,0,0,170.63,94.38Z"/><path class="cls-1" d="M156,108.54a9.94,9.94,0,0,0,6.15,5.32,9.94,9.94,0,0,0-6.27-13.45A9.9,9.9,0,0,0,156,108.54Z"/><path class="cls-1" d="M167.5,107.72a9.91,9.91,0,0,0-5.32,6.15,9.94,9.94,0,0,0,13.45-6.27A9.9,9.9,0,0,0,167.5,107.72Z"/><path class="cls-1" d="M150.62,119.13a9.91,9.91,0,0,0,5.14,6.3,9.94,9.94,0,0,0-3.84-14.33A9.94,9.94,0,0,0,150.62,119.13Z"/><path class="cls-1" d="M162.09,120.32a9.91,9.91,0,0,0-6.31,5.13,9.94,9.94,0,0,0,14.33-3.84A9.87,9.87,0,0,0,162.09,120.32Z"/><path class="cls-1" d="M143.47,128.63a9.93,9.93,0,0,0,4,7.1A9.93,9.93,0,0,0,146.14,121,9.92,9.92,0,0,0,143.47,128.63Z"/><path class="cls-1" d="M154.56,131.79a9.91,9.91,0,0,0-7.1,4,9.93,9.93,0,0,0,14.78-1.29A9.88,9.88,0,0,0,154.56,131.79Z"/><path class="cls-1" d="M134.77,136.76a9.94,9.94,0,0,0,2.66,7.68,9.94,9.94,0,0,0,1.3-14.78A9.88,9.88,0,0,0,134.77,136.76Z"/><path class="cls-1" d="M145.14,141.79a10,10,0,0,0-7.68,2.67,9.93,9.93,0,0,0,14.78,1.29A10,10,0,0,0,145.14,141.79Z"/><path class="cls-1" d="M124.77,143.26a9.91,9.91,0,0,0,1.3,8A9.94,9.94,0,0,0,129.91,137,9.93,9.93,0,0,0,124.77,143.26Z"/><path class="cls-1" d="M134.11,150a9.9,9.9,0,0,0-8,1.29,9.94,9.94,0,0,0,14.33,3.84A9.89,9.89,0,0,0,134.11,150Z"/><path class="cls-1" d="M113.79,147.94a9.9,9.9,0,0,0-.12,8.13,9.94,9.94,0,0,0,6.27-13.45A9.91,9.91,0,0,0,113.79,147.94Z"/><path class="cls-1" d="M121.81,156.22a9.9,9.9,0,0,0-8.13-.12,9.94,9.94,0,0,0,13.45,6.27A9.91,9.91,0,0,0,121.81,156.22Z"/><path class="cls-1" d="M104.08,9.85a9.89,9.89,0,0,0,8.11-.59A9.94,9.94,0,0,0,98.25,4.19,9.9,9.9,0,0,0,104.08,9.85Z"/><path class="cls-1" d="M78.42,178.68l-4.84-.86c13.75-13.6,30.51-18.95,39.93-22.14l2.48-.85C147.19,143.91,168.16,115,168.16,83c0-36.07-26.52-67.53-63.06-74.82L105.33,7c37.1,7.4,64,39.36,64,76,0,32.55-21.29,61.88-53,73-.76.27-1.59.55-2.49.85A88,88,0,0,0,78.42,178.68Z"/><path class="cls-2" d="M69,43.72c5.08-2.5,9.1-3.92,15.61-11.68h15.88V82.53h8.3V94.4H73.12V82.53H82V49.43l-8.92,4.19Z"/><rect class="cls-2" x="58.03" y="116.73" width="66.05" height="8.5"/><rect class="cls-3" x="65.09" y="94.39" width="51.94" height="22.32"/><path class="cls-2" d="M104.7,112.52H77.42a3.36,3.36,0,0,0-3.37-3.36V102a3.37,3.37,0,0,0,3.37-3.37H104.7a3.37,3.37,0,0,0,3.37,3.37v7.18A3.36,3.36,0,0,0,104.7,112.52Z"/></g></g></svg>