<svg xmlns="http://www.w3.org/2000/svg" viewBox="0 0 140.97 155.01"><defs><style>.cls-1{fill:#e1ad3d;}.cls-2{fill:#f4cc6a;}.cls-3{fill:#c68f30;}</style></defs><title>rankingalt</title><g id="Camada_2" data-name="Camada 2"><g id="OBJECTS"><path class="cls-1" d="M75.86,25.48H65.11A9.17,9.17,0,0,1,56,16.32V9.16A9.17,9.17,0,0,1,65.11,0H75.86A9.16,9.16,0,0,1,85,9.16v7.16A9.16,9.16,0,0,1,75.86,25.48ZM65.11,8.55a.62.62,0,0,0-.61.61v7.16a.63.63,0,0,0,.61.61H75.86a.63.63,0,0,0,.61-.61V9.16a.63.63,0,0,0-.61-.61Z"/><circle class="cls-2" cx="70.48" cy="84.53" r="70.48" transform="translate(-39.13 74.6) rotate(-45)"/><path class="cls-3" d="M51.84,42.16a6.54,6.54,0,0,1-3.47-4,6.36,6.36,0,0,1,5.31.08,6.54,6.54,0,0,1,3.47,4A6.4,6.4,0,0,1,51.84,42.16Z"/><path class="cls-3" d="M52.38,34.59a6.49,6.49,0,0,1-4,3.51,6.55,6.55,0,0,1,.08-5.36,6.47,6.47,0,0,1,4-3.5A6.61,6.61,0,0,1,52.38,34.59Z"/><path class="cls-3" d="M44.93,45.71a6.54,6.54,0,0,1-4.11-3.38,6.39,6.39,0,0,1,5.24-.85,6.47,6.47,0,0,1,4.11,3.37A6.43,6.43,0,0,1,44.93,45.71Z"/><path class="cls-3" d="M44.16,38.16a6.54,6.54,0,0,1-3.35,4.15,6.58,6.58,0,0,1,2.51-9.44A6.61,6.61,0,0,1,44.16,38.16Z"/><path class="cls-3" d="M38.74,50.41a6.47,6.47,0,0,1-4.64-2.6,6.42,6.42,0,0,1,5-1.76,6.48,6.48,0,0,1,4.64,2.61A6.45,6.45,0,0,1,38.74,50.41Z"/><path class="cls-3" d="M36.67,43.12a6.52,6.52,0,0,1-2.58,4.67,6.58,6.58,0,0,1,.84-9.73A6.53,6.53,0,0,1,36.67,43.12Z"/><path class="cls-3" d="M33.44,56.14a6.42,6.42,0,0,1-5-1.75,6.43,6.43,0,0,1,9.64-.85A6.44,6.44,0,0,1,33.44,56.14Z"/><path class="cls-3" d="M30.15,49.32a6.59,6.59,0,0,1-1.74,5.06,6.59,6.59,0,0,1-.84-9.74A6.55,6.55,0,0,1,30.15,49.32Z"/><path class="cls-3" d="M29.19,62.73A6.41,6.41,0,0,1,24,61.87a6.51,6.51,0,0,1,4.11-3.38,6.43,6.43,0,0,1,5.24.86A6.56,6.56,0,0,1,29.19,62.73Z"/><path class="cls-3" d="M24.78,56.58a6.55,6.55,0,0,1-.84,5.28,6.52,6.52,0,0,1-3.35-4.15,6.59,6.59,0,0,1,.84-5.28A6.46,6.46,0,0,1,24.78,56.58Z"/><path class="cls-3" d="M26.14,70a6.37,6.37,0,0,1-5.3.08,6.48,6.48,0,0,1,3.47-4,6.34,6.34,0,0,1,5.3-.08A6.48,6.48,0,0,1,26.14,70Z"/><path class="cls-3" d="M20.74,64.67A6.63,6.63,0,0,1,20.82,70a6.47,6.47,0,0,1-4-3.5,6.55,6.55,0,0,1-.08-5.36A6.47,6.47,0,0,1,20.74,64.67Z"/><path class="cls-3" d="M24.37,77.61a6.41,6.41,0,0,1-5.21,1A6.51,6.51,0,0,1,21.88,74a6.41,6.41,0,0,1,5.21-1A6.51,6.51,0,0,1,24.37,77.61Z"/><path class="cls-3" d="M18.14,73.36a6.56,6.56,0,0,1,1,5.26,6.45,6.45,0,0,1-4.55-2.75,6.53,6.53,0,0,1-1-5.25A6.44,6.44,0,0,1,18.14,73.36Z"/><path class="cls-3" d="M23.93,85.47A6.4,6.4,0,0,1,19,87.37a6.54,6.54,0,0,1,1.88-5,6.42,6.42,0,0,1,5-1.9A6.57,6.57,0,0,1,23.93,85.47Z"/><path class="cls-3" d="M17.07,82.37a6.59,6.59,0,0,1,1.89,5,6.41,6.41,0,0,1-5-1.9,6.57,6.57,0,0,1-1.89-5A6.42,6.42,0,0,1,17.07,82.37Z"/><path class="cls-3" d="M24.85,93.22A6.45,6.45,0,0,1,20.3,96a6.59,6.59,0,0,1,1-5.26A6.48,6.48,0,0,1,25.85,88,6.57,6.57,0,0,1,24.85,93.22Z"/><path class="cls-3" d="M17.56,91.38A6.49,6.49,0,0,1,20.27,96a6.38,6.38,0,0,1-5.2-1,6.55,6.55,0,0,1-2.72-4.6A6.42,6.42,0,0,1,17.56,91.38Z"/><path class="cls-3" d="M27.1,100.7a6.51,6.51,0,0,1-4,3.5,6.61,6.61,0,0,1,.08-5.35,6.52,6.52,0,0,1,4-3.5A6.57,6.57,0,0,1,27.1,100.7Z"/><path class="cls-3" d="M19.6,100.16a6.51,6.51,0,0,1,3.46,4,6.41,6.41,0,0,1-5.3-.08,6.53,6.53,0,0,1-3.47-4A6.44,6.44,0,0,1,19.6,100.16Z"/><path class="cls-3" d="M30.6,107.67a6.48,6.48,0,0,1-3.34,4.15,6.56,6.56,0,0,1,2.5-9.43A6.55,6.55,0,0,1,30.6,107.67Z"/><path class="cls-3" d="M23.13,108.46a6.48,6.48,0,0,1,4.11,3.38,6.45,6.45,0,0,1-9.35-2.53A6.39,6.39,0,0,1,23.13,108.46Z"/><path class="cls-3" d="M35.27,113.93a6.53,6.53,0,0,1-2.58,4.67,6.58,6.58,0,0,1,.84-9.73A6.56,6.56,0,0,1,35.27,113.93Z"/><path class="cls-3" d="M28,116a6.48,6.48,0,0,1,4.63,2.61,6.45,6.45,0,0,1-9.64-.85A6.41,6.41,0,0,1,28,116Z"/><path class="cls-3" d="M41,119.28a6.59,6.59,0,0,1-1.74,5.06,6.56,6.56,0,0,1-2.59-4.68,6.63,6.63,0,0,1,1.74-5.06A6.56,6.56,0,0,1,41,119.28Z"/><path class="cls-3" d="M34.18,122.6a6.42,6.42,0,0,1,5,1.75,6.43,6.43,0,0,1-9.64.85A6.44,6.44,0,0,1,34.18,122.6Z"/><path class="cls-3" d="M47.47,123.56a6.59,6.59,0,0,1-.84,5.28,6.46,6.46,0,0,1-3.35-4.15,6.55,6.55,0,0,1,.84-5.28A6.52,6.52,0,0,1,47.47,123.56Z"/><path class="cls-3" d="M41.38,128a6.4,6.4,0,0,1,5.23.85,6.44,6.44,0,0,1-9.34,2.53A6.45,6.45,0,0,1,41.38,128Z"/><path class="cls-3" d="M54.63,126.64a6.53,6.53,0,0,1,.08,5.35,6.47,6.47,0,0,1-4-3.5,6.61,6.61,0,0,1-.08-5.35A6.47,6.47,0,0,1,54.63,126.64Z"/><path class="cls-3" d="M49.4,132.09a6.41,6.41,0,0,1,5.3-.08,6.47,6.47,0,0,1-8.77,4.13A6.55,6.55,0,0,1,49.4,132.09Z"/><path class="cls-3" d="M61,35.73a6.44,6.44,0,0,1-5.29-.39,6.53,6.53,0,0,1,3.8-3.73,6.44,6.44,0,0,1,5.29.39A6.5,6.5,0,0,1,61,35.73Z"/><path class="cls-3" d="M77.77,144.06l-.57.57a49.09,49.09,0,0,0-6.71-5c-.27-.15-.51-.3-.75-.45a74.41,74.41,0,0,0-15.18-6.69c-.6-.21-1.13-.39-1.61-.57s-.78-.27-1.17-.45a44.52,44.52,0,0,1-5.31-2.35,25.86,25.86,0,0,1-2.32-1.27c-.84-.48-1.64-1-2.42-1.5s-1.82-1.21-2.68-1.87c-.63-.45-1.26-.93-1.88-1.44h0a52.11,52.11,0,0,1-4.6-4.31c-.53-.54-1.07-1.11-1.58-1.68a51.72,51.72,0,0,1-3.91-5.12c-.47-.7-.92-1.36-1.34-2.08a49,49,0,0,1-2.95-5.54c-.36-.84-.72-1.69-1.05-2.53A49.25,49.25,0,0,1,19.89,96c-.24-1-.44-1.93-.65-2.89a52.47,52.47,0,0,1-.75-5.78c-.06-1-.12-2-.12-3v-.45a45.37,45.37,0,0,1,.3-5.36c.09-1,.24-2,.42-3a50.57,50.57,0,0,1,1.31-5.63c.27-1,.6-1.9.93-2.83a48.77,48.77,0,0,1,2.29-5.36c.42-.85.84-1.66,1.31-2.47a46.11,46.11,0,0,1,3.26-5c.5-.69,1-1.35,1.55-2a50.91,50.91,0,0,1,4.2-4.6c.57-.55,1.17-1.12,1.79-1.66a48.7,48.7,0,0,1,5-3.85c.71-.48,1.43-1,2.17-1.42a0,0,0,0,1,0,0,51.08,51.08,0,0,1,5.37-2.86c.87-.42,1.76-.81,2.66-1.17,1.61-.63,3.25-1.21,4.95-1.69,1.4-.42,2.84-.75,4.27-1.05l.18.75c-1.38.27-2.72.6-4,1a52.09,52.09,0,0,0-5.64,2c-.72.3-1.43.6-2.12,1a42.8,42.8,0,0,0-5.22,2.8c-.74.46-1.49.94-2.21,1.48a44.21,44.21,0,0,0-4.62,3.58c-.72.57-1.37,1.21-2,1.84a50.88,50.88,0,0,0-4,4.4c-.56.69-1.1,1.38-1.61,2.1a46.17,46.17,0,0,0-3.34,5.18c-.42.72-.77,1.45-1.13,2.17a48.23,48.23,0,0,0-2.54,6,20.22,20.22,0,0,0-.62,2.05,46.52,46.52,0,0,0-1.44,6.44c-.12.69-.21,1.39-.26,2.08a42.87,42.87,0,0,0-.3,5.21c0,.48,0,1,0,1.44,0,.69.06,1.39.09,2.05a43.5,43.5,0,0,0,.89,6.29c.15.75.3,1.51.51,2.26a42.79,42.79,0,0,0,1.85,5.75c.3.81.62,1.6,1,2.38a48.34,48.34,0,0,0,2.75,5.24c.44.78.92,1.5,1.43,2.26a52.6,52.6,0,0,0,3.55,4.63c.6.7,1.22,1.39,1.85,2a45.72,45.72,0,0,0,4.27,4c.68.58,1.4,1.15,2.14,1.72l2.21,1.54c.93.63,1.88,1.2,2.89,1.8.72.39,1.47.82,2.21,1.21a55.88,55.88,0,0,0,6,2.59l.36.12,1.61.57h0a75.47,75.47,0,0,1,15.66,6.95c.24.15.48.3.75.49A49.77,49.77,0,0,1,77.77,144.06Z"/><path class="cls-3" d="M89.12,42.16a6.48,6.48,0,0,0,3.47-4,6.34,6.34,0,0,0-5.3.08,6.48,6.48,0,0,0-3.47,4A6.37,6.37,0,0,0,89.12,42.16Z"/><path class="cls-3" d="M88.59,34.59a6.49,6.49,0,0,0,4,3.51,6.63,6.63,0,0,0-.08-5.36,6.47,6.47,0,0,0-4-3.5A6.53,6.53,0,0,0,88.59,34.59Z"/><path class="cls-3" d="M96,45.71a6.51,6.51,0,0,0,4.11-3.38,6.36,6.36,0,0,0-5.23-.85,6.51,6.51,0,0,0-4.12,3.37A6.43,6.43,0,0,0,96,45.71Z"/><path class="cls-3" d="M96.81,38.16a6.5,6.5,0,0,0,3.34,4.15,6.57,6.57,0,0,0-2.5-9.44A6.58,6.58,0,0,0,96.81,38.16Z"/><path class="cls-3" d="M102.23,50.41a6.45,6.45,0,0,0,4.63-2.6,6.43,6.43,0,0,0-9.64.85A6.44,6.44,0,0,0,102.23,50.41Z"/><path class="cls-3" d="M104.29,43.12a6.58,6.58,0,0,0,2.58,4.67,6.58,6.58,0,0,0-.84-9.73A6.56,6.56,0,0,0,104.29,43.12Z"/><path class="cls-3" d="M107.53,56.14a6.44,6.44,0,0,0,5-1.75,6.43,6.43,0,0,0-9.64-.85A6.42,6.42,0,0,0,107.53,56.14Z"/><path class="cls-3" d="M110.82,49.32a6.55,6.55,0,0,0,1.74,5.06,6.59,6.59,0,0,0,.84-9.74A6.52,6.52,0,0,0,110.82,49.32Z"/><path class="cls-3" d="M111.77,62.73a6.43,6.43,0,0,0,5.24-.86,6.56,6.56,0,0,0-4.12-3.38,6.41,6.41,0,0,0-5.23.86A6.51,6.51,0,0,0,111.77,62.73Z"/><path class="cls-3" d="M116.18,56.58a6.56,6.56,0,0,0,.85,5.28,6.48,6.48,0,0,0,3.34-4.15,6.55,6.55,0,0,0-.84-5.28A6.52,6.52,0,0,0,116.18,56.58Z"/><path class="cls-3" d="M114.82,70a6.4,6.4,0,0,0,5.31.08,6.54,6.54,0,0,0-3.47-4,6.34,6.34,0,0,0-5.3-.08A6.49,6.49,0,0,0,114.82,70Z"/><path class="cls-3" d="M120.23,64.67a6.55,6.55,0,0,0-.08,5.36,6.47,6.47,0,0,0,4-3.5,6.63,6.63,0,0,0,.08-5.36A6.47,6.47,0,0,0,120.23,64.67Z"/><path class="cls-3" d="M116.6,77.61a6.39,6.39,0,0,0,5.2,1A6.49,6.49,0,0,0,119.09,74a6.42,6.42,0,0,0-5.21-1A6.51,6.51,0,0,0,116.6,77.61Z"/><path class="cls-3" d="M122.82,73.36a6.59,6.59,0,0,0-1,5.26,6.45,6.45,0,0,0,4.55-2.75,6.57,6.57,0,0,0,1-5.25A6.48,6.48,0,0,0,122.82,73.36Z"/><path class="cls-3" d="M117,85.47a6.42,6.42,0,0,0,5,1.9,6.59,6.59,0,0,0-1.89-5,6.4,6.4,0,0,0-4.95-1.9A6.53,6.53,0,0,0,117,85.47Z"/><path class="cls-3" d="M123.9,82.37a6.59,6.59,0,0,0-1.89,5,6.42,6.42,0,0,0,5-1.9,6.53,6.53,0,0,0,1.88-5A6.4,6.4,0,0,0,123.9,82.37Z"/><path class="cls-3" d="M116.12,93.22A6.45,6.45,0,0,0,120.67,96a6.56,6.56,0,0,0-1-5.26A6.44,6.44,0,0,0,115.12,88,6.53,6.53,0,0,0,116.12,93.22Z"/><path class="cls-3" d="M123.41,91.38A6.51,6.51,0,0,0,120.69,96a6.41,6.41,0,0,0,5.21-1,6.55,6.55,0,0,0,2.72-4.6A6.41,6.41,0,0,0,123.41,91.38Z"/><path class="cls-3" d="M113.87,100.7a6.47,6.47,0,0,0,4,3.5,6.56,6.56,0,0,0-4.09-8.85A6.61,6.61,0,0,0,113.87,100.7Z"/><path class="cls-3" d="M121.37,100.16a6.55,6.55,0,0,0-3.47,4,6.47,6.47,0,0,0,8.77-4.13A6.41,6.41,0,0,0,121.37,100.16Z"/><path class="cls-3" d="M110.36,107.67a6.52,6.52,0,0,0,3.35,4.15,6.57,6.57,0,0,0-2.51-9.43A6.59,6.59,0,0,0,110.36,107.67Z"/><path class="cls-3" d="M117.84,108.46a6.45,6.45,0,0,0-4.11,3.38,6.45,6.45,0,0,0,5.23.85,6.56,6.56,0,0,0,4.12-3.38A6.39,6.39,0,0,0,117.84,108.46Z"/><path class="cls-3" d="M105.7,113.93a6.5,6.5,0,0,0,2.58,4.67,6.58,6.58,0,0,0-.84-9.73A6.53,6.53,0,0,0,105.7,113.93Z"/><path class="cls-3" d="M112.93,116a6.44,6.44,0,0,0-4.63,2.61,6.45,6.45,0,0,0,9.64-.85A6.42,6.42,0,0,0,112.93,116Z"/><path class="cls-3" d="M100,119.28a6.55,6.55,0,0,0,1.74,5.06,6.59,6.59,0,0,0,.84-9.74A6.52,6.52,0,0,0,100,119.28Z"/><path class="cls-3" d="M106.78,122.6a6.44,6.44,0,0,0-5,1.75A6.48,6.48,0,0,0,106.4,127a6.41,6.41,0,0,0,5-1.76A6.4,6.4,0,0,0,106.78,122.6Z"/><path class="cls-3" d="M93.5,123.56a6.55,6.55,0,0,0,.84,5.28,6.52,6.52,0,0,0,3.35-4.15,6.59,6.59,0,0,0-.84-5.28A6.49,6.49,0,0,0,93.5,123.56Z"/><path class="cls-3" d="M99.59,128a6.42,6.42,0,0,0-5.24.85,6.45,6.45,0,0,0,9.35,2.53A6.45,6.45,0,0,0,99.59,128Z"/><path class="cls-3" d="M86.33,126.64a6.61,6.61,0,0,0-.08,5.35,6.51,6.51,0,0,0,4-3.5,6.61,6.61,0,0,0,.08-5.35A6.51,6.51,0,0,0,86.33,126.64Z"/><path class="cls-3" d="M91.57,132.09a6.44,6.44,0,0,0-5.31-.08,6.53,6.53,0,0,0,3.47,4.05,6.41,6.41,0,0,0,5.3.08A6.51,6.51,0,0,0,91.57,132.09Z"/><path class="cls-3" d="M80,35.73a6.44,6.44,0,0,0,5.29-.39,6.52,6.52,0,0,0-3.81-3.73,6.44,6.44,0,0,0-5.29.39A6.52,6.52,0,0,0,80,35.73Z"/><path class="cls-3" d="M122.58,83.88v.51c0,1-.06,2-.12,3a46.64,46.64,0,0,1-.78,5.81v0c-.18,1-.39,1.9-.62,2.83a49.25,49.25,0,0,1-1.82,5.75c-.33.84-.69,1.69-1,2.53a48.37,48.37,0,0,1-2.92,5.51,0,0,0,0,1,0,0,24.55,24.55,0,0,1-1.31,2.11,55.21,55.21,0,0,1-3.88,5c-.51.6-1,1.17-1.61,1.74a51.41,51.41,0,0,1-4.57,4.28c-.62.51-1.28,1-1.94,1.47h0c-.89.69-1.76,1.33-2.71,1.93-.75.51-1.55,1-2.36,1.44a25.86,25.86,0,0,1-2.32,1.27,50.66,50.66,0,0,1-5.29,2.38h0c-.38.15-.77.27-1.16.42l-1.61.57h0a75,75,0,0,0-15.15,6.69,7.07,7.07,0,0,0-.75.45,46.38,46.38,0,0,0-6.74,5l-.57-.57a48.07,48.07,0,0,1,6.56-4.87,5.37,5.37,0,0,1,.75-.49,75.47,75.47,0,0,1,15.66-6.95c.6-.21,1.14-.39,1.61-.57l.42-.15a57.42,57.42,0,0,0,5.94-2.56c.77-.42,1.52-.82,2.26-1.27a0,0,0,0,0,0,0c1-.54,1.88-1.11,2.78-1.71.74-.49,1.49-1,2.21-1.54s1.46-1.11,2.17-1.72a45.72,45.72,0,0,0,4.27-4c.66-.69,1.25-1.35,1.88-2.08l0,0a55.79,55.79,0,0,0,3.49-4.57c.54-.76,1-1.54,1.49-2.35a46.82,46.82,0,0,0,2.72-5.15c.32-.75.65-1.48,1-2.26v0a49.05,49.05,0,0,0,1.88-5.84c.21-.75.36-1.51.51-2.26V93.6a42.68,42.68,0,0,0,.89-6.23c0-.63.06-1.27.09-1.93v0c0-.51,0-1,0-1.53a42.87,42.87,0,0,0-.3-5.21c-.06-.66-.15-1.33-.23-2a43.77,43.77,0,0,0-1.47-6.53c-.18-.69-.38-1.39-.62-2.05a48.23,48.23,0,0,0-2.54-6c-.33-.72-.71-1.42-1.1-2.11a50.13,50.13,0,0,0-3.37-5.24c-.51-.72-1-1.41-1.61-2.1a50.88,50.88,0,0,0-4-4.4c-.66-.63-1.31-1.27-2-1.84l0,0a42.68,42.68,0,0,0-4.6-3.55c-.71-.54-1.46-1-2.2-1.48a42.8,42.8,0,0,0-5.22-2.8,19.32,19.32,0,0,0-2.09-.93l0,0a52.09,52.09,0,0,0-5.64-2c-1.31-.39-2.66-.72-4-1l.15-.75c1.46.3,2.9.66,4.3,1.08a40.07,40.07,0,0,1,5,1.69h0c.89.36,1.76.75,2.63,1.14a54.05,54.05,0,0,1,5.45,2.95c.72.42,1.41.91,2.09,1.36a53.33,53.33,0,0,1,5,3.91l0,0c.57.51,1.14,1.06,1.71,1.6a44.24,44.24,0,0,1,4.23,4.63c.54.64,1.05,1.3,1.52,2a44.58,44.58,0,0,1,3.25,5v0a22.83,22.83,0,0,1,1.32,2.44,38.61,38.61,0,0,1,2.29,5.42v0c.36.93.66,1.83.93,2.77a44.67,44.67,0,0,1,1.31,5.63c.18,1,.33,2,.42,3A45.37,45.37,0,0,1,122.58,83.88Z"/><path class="cls-3" d="M51.75,66.17C56.38,63.9,60,62.6,66,55.53H80.42v46H88v10.8H55.49v-10.8h8.12V71.37l-8.12,3.82Z"/></g></g></svg>